<svg width="24" height="24" viewBox="0 0 24 24" fill="none" xmlns="http://www.w3.org/2000/svg">
<g clip-path="url(#clip0_5234_170119)">
<path d="M13 7L11 7L11 11L7 11L7 13L11 13V17H13V13H17V11H13L13 7ZM12 2C6.49 2 2 6.49 2 12C2 17.51 6.49 22 12 22C17.51 22 22 17.51 22 12C22 6.49 17.51 2 12 2ZM12 20C7.59 20 4 16.41 4 12C4 7.59 7.59 4 12 4C16.41 4 20 7.59 20 12C20 16.41 16.41 20 12 20Z" fill="#0084FE"/>
</g>
<defs>
<clipPath id="clip0_5234_170119">
<rect width="24" height="24" fill="white"/>
</clipPath>
</defs>
</svg>
