<svg width="24" height="24" viewBox="0 0 24 24" fill="none" xmlns="http://www.w3.org/2000/svg">
<path d="M23.2268 2.76953H14.7695V5.52399H17.5674V7.39876H14.7695V9.23107H17.5388V11.0772H14.7695V12.9234H17.5388V14.7695H14.7695V16.6157H17.5388V18.4618H14.7695V21.2311H23.2268C23.6523 21.2311 24.0003 20.8701 24.0003 20.428V3.57261C24.0003 3.13045 23.6523 2.76953 23.2268 2.76953ZM22.1541 18.4618H18.4618V16.6157H22.1541V18.4618ZM22.1541 14.7695H18.4618V12.9234H22.1541V14.7695ZM22.1541 11.0772H18.4618V9.23107H22.1541V11.0772ZM22.1541 7.38492H18.4618V5.53876H22.1541V7.38492Z" fill="white"/>
<path d="M0 2.66677V21.3342L13.8462 24V0L0 2.66677ZM8.75815 16.6892L7.14738 13.644C7.08646 13.5305 7.02369 13.3218 6.95815 13.0182H6.93323C6.90277 13.1612 6.83077 13.3791 6.71723 13.6708L5.10092 16.6892H2.59108L5.57077 12.0148L2.84492 7.33939H5.40738L6.744 10.1428C6.84831 10.3643 6.94154 10.6274 7.02462 10.9311H7.05046C7.10308 10.7483 7.20092 10.4769 7.344 10.116L8.83015 7.33846H11.1766L8.37323 11.9742L11.2551 16.6883L8.75815 16.6892Z" fill="white"/>
</svg>
