<svg width="32" height="32" viewBox="0 0 32 32" fill="none" xmlns="http://www.w3.org/2000/svg">
<rect width="31.2558" height="32" rx="15.6279" fill="#FBFBFC"/>
<path d="M15.6652 21.1392C17.6389 21.1392 19.1056 19.9013 19.1056 18.2358C19.1056 16.9432 18.3399 16.0036 17.0573 15.7898V15.7102C18.0864 15.397 18.7277 14.5518 18.7277 13.4034C18.7277 11.9616 17.5892 10.679 15.705 10.679C13.945 10.679 12.4834 11.7628 12.4237 13.3636H13.6169C13.6617 12.3494 14.6262 11.7528 15.6851 11.7528C16.8087 11.7528 17.5345 12.4339 17.5345 13.4631C17.5345 14.5369 16.6943 15.233 15.4862 15.233H14.6709V16.3267H15.4862C17.0324 16.3267 17.8925 17.1122 17.8925 18.2358C17.8925 19.3146 16.9529 20.0455 15.6453 20.0455C14.4671 20.0455 13.5324 19.4389 13.4578 18.4545H12.205C12.2796 20.0554 13.6915 21.1392 15.6652 21.1392Z" fill="#363B4D" fill-opacity="0.4"/>
<rect x="0.25" y="0.25" width="30.7558" height="31.5" rx="15.3779" stroke="#363B4D" stroke-opacity="0.4" stroke-width="0.5"/>
</svg>
