<svg width="40" height="40" viewBox="0 0 40 40" fill="none" xmlns="http://www.w3.org/2000/svg">
<rect x="4.25" y="4.25" width="31.5" height="31.5" rx="15.75" fill="#4ED4A9"/>
<path d="M20.0373 25.1392C22.011 25.1392 23.4776 23.9013 23.4776 22.2358C23.4776 20.9432 22.712 20.0036 21.4293 19.7898V19.7102C22.4585 19.397 23.0998 18.5518 23.0998 17.4034C23.0998 15.9616 21.9613 14.679 20.0771 14.679C18.3171 14.679 16.8555 15.7628 16.7958 17.3636H17.989C18.0337 16.3494 18.9982 15.7528 20.0572 15.7528C21.1808 15.7528 21.9066 16.4339 21.9066 17.4631C21.9066 18.5369 21.0664 19.233 19.8583 19.233H19.043V20.3267H19.8583C21.4045 20.3267 22.2646 21.1122 22.2646 22.2358C22.2646 23.3146 21.3249 24.0455 20.0174 24.0455C18.8391 24.0455 17.9045 23.4389 17.8299 22.4545H16.5771C16.6516 24.0554 18.0636 25.1392 20.0373 25.1392Z" fill="white"/>
<rect x="4.25" y="4.25" width="31.5" height="31.5" rx="15.75" stroke="#4ED4A9" stroke-width="0.5"/>
<rect x="0.5" y="0.5" width="39" height="39" rx="19.5" stroke="#4ED4A9"/>
</svg>
