<svg width="11" height="22" viewBox="0 0 11 22" fill="none" xmlns="http://www.w3.org/2000/svg">
<path d="M1.5 17L1.5 5.5C1.5 3.29 3.29 1.5 5.5 1.5C7.71 1.5 9.5 3.29 9.5 5.5L9.5 18C9.5 19.38 8.38 20.5 7 20.5C5.62 20.5 4.5 19.38 4.5 18L4.5 7.5C4.5 6.95 4.95 6.5 5.5 6.5C6.05 6.5 6.5 6.95 6.5 7.5L6.5 17L8 17L8 7.5C8 6.12 6.88 5 5.5 5C4.12 5 3 6.12 3 7.5L3 18C3 20.21 4.79 22 7 22C9.21 22 11 20.21 11 18L11 5.5C11 2.46 8.54 3.59964e-06 5.5 3.33387e-06C2.46 3.06811e-06 1.70824e-06 2.46 1.44248e-06 5.5L4.37114e-07 17L1.5 17Z" fill="#1A90FE"/>
</svg>
