<svg width="41" height="40" viewBox="0 0 41 40" fill="none" xmlns="http://www.w3.org/2000/svg">
<rect x="4.50586" y="4.25" width="31.5" height="31.5" rx="15.75" fill="#4ED4A9"/>
<path d="M17.0716 25H23.4949V23.9062H18.7619V23.8267L21.0488 21.3807C22.7988 19.5064 23.3159 18.6314 23.3159 17.5028C23.3159 15.9318 22.0431 14.679 20.2534 14.679C18.4686 14.679 17.1113 15.892 17.1113 17.6818H18.2846C18.2846 16.5234 19.0353 15.7528 20.2136 15.7528C21.3173 15.7528 22.1625 16.429 22.1625 17.5028C22.1625 18.4425 21.6106 19.1385 20.4324 20.4261L17.0716 24.1051V25Z" fill="white"/>
<rect x="4.50586" y="4.25" width="31.5" height="31.5" rx="15.75" stroke="#4ED4A9" stroke-width="0.5"/>
<rect x="0.755859" y="0.5" width="39" height="39" rx="19.5" stroke="#4ED4A9"/>
</svg>
