<svg width="224" height="39" viewBox="0 0 224 39" fill="none" xmlns="http://www.w3.org/2000/svg">
<path fill-rule="evenodd" clip-rule="evenodd" d="M171.67 21.6183C172.408 22.6027 172.972 23.5636 172.972 24.8445C172.972 26.0527 172.479 26.7053 171.494 26.8012C171.4 26.826 171.259 26.8374 171.071 26.8374C170.813 26.8374 170.602 26.7899 170.438 26.6923C170.297 26.5716 170.226 26.4269 170.226 26.2575C170.226 26.1368 170.286 25.9682 170.403 25.7499C170.52 25.5089 170.579 25.3033 170.579 25.1338C170.579 24.892 170.368 24.7718 169.945 24.7718C169.311 24.9404 168.725 25.0973 168.185 25.2423C167.988 25.2955 167.797 25.3468 167.613 25.3965C167.292 25.483 166.99 25.5644 166.707 25.641C166.449 25.641 166.226 25.7381 166.038 25.9316C165.874 26.0998 165.792 26.2457 165.792 26.3664C165.792 27.1149 167.223 27.49 170.086 27.49C171.376 27.49 172.537 27.3933 173.569 27.1999C174.625 26.9825 175.576 26.6322 176.42 26.1486C177.265 25.6658 178.212 24.9341 178.966 24.1868L178.996 24.1575C179.854 23.3089 180.538 22.632 181.281 21.4135C182.032 20.1805 182.626 18.7171 182.96 17.0144C183.295 15.3113 183.4 13.3079 183.042 12.0476L177.84 12.4463C178.836 17.0367 178.576 20.9812 176.851 24.1486C175.983 25.7419 174.582 26.6578 173.042 26.8008C174.45 26.0035 175.154 24.8315 175.154 23.2852C175.154 21.5935 174.332 19.3462 172.691 16.543C170.649 13.0872 169.453 10.8638 169.101 9.8731C176.21 9.60691 179.764 9.01523 179.764 8.09724C179.764 7.63803 179.436 7.28731 178.779 7.04593C178.145 6.78016 177.383 6.57452 176.491 6.42944L176.526 6.57452C176.526 7.13046 175.787 7.66157 174.309 8.16956C173.558 8.43533 172.737 8.66494 171.846 8.85796C170.977 9.0514 170.016 9.20867 168.96 9.32936C168.772 8.72549 168.632 8.1456 168.537 7.58966C168.443 7.03374 168.396 6.48958 168.396 5.95846C168.396 2.8651 169.957 1.31885 172.127 1.31885C174.379 1.31885 175.79 2.69605 176.493 5.45089H181.77C180.925 2.30917 178.039 0.738525 173.112 0.738525C171.752 0.738525 170.543 0.968128 169.487 1.42692C168.432 1.86216 164.083 3.7339 164.083 9.80119C164.083 14.539 167.815 17.9596 170.123 20.0751C170.81 20.7051 171.371 21.2194 171.67 21.6183ZM153.729 8.63674C153.541 8.54129 153.342 8.44541 153.131 8.35037C153.975 9.28098 155.16 10.3436 156.686 11.5375C160.885 14.8079 162.985 18.5089 162.985 22.6385C162.985 24.0947 162.704 25.6111 162.141 27.1868H144.473V26.757H146.866V4.05222C146.866 2.78687 147.312 1.92732 148.204 1.47357C149.096 0.996702 150.315 0.757424 151.864 0.757424C152.709 0.757424 153.623 0.829754 154.608 0.973152C155.594 1.11613 156.51 1.36635 157.354 1.72506C158.199 2.05937 158.902 2.52404 159.465 3.12118C160.029 3.7179 160.31 4.45844 160.31 5.34196C160.31 5.77173 160.216 6.16534 160.029 6.52362C159.865 6.88191 159.583 7.20362 159.184 7.49083C158.597 7.92019 157.952 8.24272 157.248 8.4576C156.544 8.67249 155.711 8.77972 154.75 8.77972C154.28 8.77972 153.94 8.73262 153.729 8.63674ZM152.075 7.77678V26.757H156.158C157.283 24.5371 157.846 22.0897 157.846 19.4156C157.846 16.3117 157.072 13.8765 155.524 12.1098C154.632 11.1069 153.904 10.26 153.341 9.56736C152.779 8.85122 152.356 8.25408 152.075 7.77678ZM152.427 1.7608C152.192 1.97568 152.075 2.22589 152.075 2.51269V5.6275C152.075 6.60647 152.263 7.22758 152.638 7.49041C152.943 7.68132 153.295 7.77678 153.693 7.77678C154.397 7.77678 154.855 7.47863 155.066 6.88149C155.277 6.28477 155.383 5.44878 155.383 4.37476C155.383 3.41976 155.242 2.69141 154.96 2.19015C154.703 1.68931 154.21 1.43783 153.483 1.43783C153.013 1.43783 152.662 1.54549 152.427 1.7608ZM195.126 20.453L195.126 20.4536L195.127 20.4553L195.128 20.4568C195.199 20.5876 195.264 20.7077 195.325 20.8171L195.326 1.55929H194.831V1.13162H202.362V1.55929H200.25V26.7607H202.362V27.1876H189.202V26.7607H195.325V24.2687C195.325 21.8011 194.196 19.2738 190.864 16.6871C186.688 13.4361 184.6 9.75779 184.6 5.65265C184.6 4.98823 184.646 4.31244 184.74 3.62363C184.858 2.93524 185.046 2.24769 185.303 1.55971H183.333V1.13204H191.922V1.55971H191.427C190.301 3.76661 189.738 6.19891 189.738 8.85661C189.738 11.9651 190.512 14.386 192.061 16.1178C193.845 18.089 194.628 19.5338 195.126 20.453ZM37.0593 0.781305H43.1271L36.6989 13.5904L43.4341 27.2082H37.4194L32.4436 16.114H31.9264V27.2082H26.71V0.781305H31.9264V11.8902H32.0087L37.0593 0.781305ZM54.1344 0.781477H46.4651V27.2088H51.6812V19.8686L54.3705 19.8677C56.8609 19.8181 58.7715 19.0704 60.2131 17.5805C61.8635 15.8719 62.0736 13.1087 62.0736 10.4611C62.0736 8.01908 61.8489 4.95768 60.1283 3.14523C58.6216 1.5544 56.6608 0.781477 54.1344 0.781477ZM56.9946 10.4859C56.9946 12.3219 56.6545 13.8425 56.3358 14.2033C55.8195 14.7882 55.1407 15.0498 54.1344 15.0498H51.6812V5.59982H54.1503C55.0885 5.59982 55.7464 5.88536 56.2853 6.52623C56.7293 7.05399 56.9946 8.39713 56.9946 10.4859ZM93.3564 27.2084H88.1403V0.781133H105.057V27.2084H99.8247V5.59948H93.3564V27.2084ZM108.065 5.59982H112.93V27.2083H118.146V5.59982H123.027V0.781477H108.065V5.59982ZM212.728 24.8445C212.728 23.5636 212.163 22.6027 211.426 21.6183C211.127 21.2194 210.566 20.7052 209.879 20.0751C207.57 17.9597 203.839 14.539 203.839 9.80119C203.839 3.7339 208.188 1.86216 209.243 1.42692C210.299 0.968128 211.507 0.738525 212.868 0.738525C217.795 0.738525 220.681 2.30917 221.526 5.45089H216.249C215.545 2.69605 214.135 1.31885 211.883 1.31885C209.713 1.31885 208.152 2.8651 208.152 5.95846C208.152 6.48958 208.199 7.03374 208.293 7.58966C208.387 8.1456 208.527 8.72549 208.715 9.32936C209.771 9.20867 210.733 9.0514 211.601 8.85796C212.492 8.66494 213.313 8.43533 214.065 8.16956C215.542 7.66157 216.282 7.13046 216.282 6.57452L216.246 6.42944C217.138 6.57452 217.901 6.78016 218.534 7.04593C219.191 7.28731 219.52 7.63803 219.52 8.09724C219.52 9.01523 215.965 9.60691 208.856 9.8731C209.208 10.8638 210.405 13.0872 212.446 16.543C214.088 19.3462 214.909 21.5935 214.909 23.2852C214.909 24.8315 214.205 26.0035 212.798 26.8008C214.337 26.6578 215.738 25.7419 216.606 24.1486C218.331 20.9812 218.592 17.0367 217.595 12.4463L222.797 12.0476C223.155 13.3079 223.051 15.3113 222.716 17.0144C222.381 18.7171 221.788 20.1805 221.036 21.4135C220.294 22.632 219.609 23.3088 218.752 24.1574L218.722 24.1868C217.967 24.9341 217.02 25.6658 216.175 26.1486C215.331 26.6322 214.381 26.9825 213.325 27.1999C212.293 27.3933 211.131 27.49 209.841 27.49C206.978 27.49 205.547 27.1149 205.547 26.3664C205.547 26.2457 205.629 26.0998 205.794 25.9316C205.982 25.7381 206.204 25.641 206.463 25.641C206.748 25.5636 207.053 25.4815 207.377 25.3941C207.559 25.3452 207.747 25.2946 207.941 25.2423C208.48 25.0973 209.066 24.9404 209.7 24.7718C210.123 24.7718 210.334 24.892 210.334 25.1338C210.334 25.3033 210.276 25.5089 210.158 25.7499C210.041 25.9682 209.982 26.1368 209.982 26.2575C209.982 26.4269 210.053 26.5716 210.194 26.6923C210.358 26.7899 210.569 26.8374 210.827 26.8374C211.015 26.8374 211.155 26.826 211.249 26.8012C212.234 26.7053 212.728 26.0527 212.728 24.8445Z" fill="#FBFBFC"/>
<path d="M129.731 19.3558C129.731 20.3921 130.048 21.2235 130.681 21.8502C131.338 22.4527 132.218 22.7539 133.32 22.7539C134.423 22.7539 135.291 22.4527 135.924 21.8502C136.581 21.2235 136.909 20.3921 136.909 19.3558V8.83591C136.909 7.79959 136.581 6.98018 135.924 6.37767C135.291 5.75105 134.423 5.43775 133.32 5.43775C132.218 5.43775 131.338 5.75105 130.681 6.37767C130.048 6.98018 129.731 7.79959 129.731 8.83591V19.3558ZM124.453 8.83591C124.453 7.60679 124.664 6.49817 125.086 5.51005C125.509 4.52193 126.107 3.67841 126.881 2.9795C127.655 2.25649 128.582 1.70218 129.661 1.31657C130.763 0.930963 131.983 0.738159 133.32 0.738159C134.657 0.738159 135.865 0.930963 136.944 1.31657C138.047 1.70218 138.985 2.25649 139.759 2.9795C140.533 3.67841 141.132 4.52193 141.554 5.51005C141.976 6.49817 142.187 7.60679 142.187 8.83591V19.3558C142.187 20.5608 141.964 21.6694 141.519 22.6816C141.096 23.6697 140.498 24.5253 139.724 25.2483C138.95 25.9472 138.012 26.5015 136.909 26.9113C135.83 27.2969 134.634 27.4897 133.32 27.4897C131.983 27.4897 130.763 27.2969 129.661 26.9113C128.582 26.5256 127.655 25.9834 126.881 25.2845C126.107 24.5615 125.509 23.7059 125.086 22.7178C124.664 21.7056 124.453 20.5849 124.453 19.3558V8.83591Z" fill="#FBFBFC"/>
<path d="M65.4775 1.14966H70.2408V15.9504C70.2408 16.5746 70.2042 17.2709 70.1309 18.0391C70.0576 18.7834 69.9843 19.4796 69.911 20.1278C69.8377 20.776 69.7645 21.3162 69.6912 21.7483C69.6423 22.1805 69.6179 22.3965 69.6179 22.3965H70.1309C70.1553 21.9404 70.1919 21.4962 70.2408 21.0641C70.2896 20.656 70.3507 20.2358 70.424 19.8037C70.5217 19.3715 70.6316 18.9634 70.7538 18.5793L76.5429 1.14966H83.2115V27.078H78.4483V12.2412C78.4483 11.545 78.4727 10.8248 78.5215 10.0805C78.5948 9.3363 78.6681 8.65208 78.7414 8.02788C78.8147 7.28364 78.9002 6.5514 78.9979 5.83117H78.4849C78.4605 6.21529 78.4238 6.62343 78.375 7.05556C78.3261 7.41568 78.2528 7.82381 78.1551 8.27996C78.0818 8.73611 77.9719 9.19226 77.8254 9.6484L72.1461 27.078H65.4775V1.14966Z" fill="#FBFBFC"/>
<path d="M6.95834 27.9097L0 20.952V14.0208L6.95834 20.9595L20.8574 7.09558V14.0343L6.95834 27.9097Z" fill="#FBFBFC"/>
<path d="M6.97656 14.0124V7.01199L13.9779 0V7.01199L6.97656 14.0124Z" fill="#FBFBFC"/>
<path d="M28.6962 38.1006C28.4046 38.1006 28.1417 38.0532 27.9073 37.9584C27.6786 37.8636 27.4813 37.7278 27.3155 37.5508C27.1555 37.3739 27.0297 37.159 26.9382 36.9063C26.8524 36.6535 26.8096 36.3723 26.8096 36.0627V34.7357C26.8096 34.4261 26.8524 34.1449 26.9382 33.8921C27.0297 33.6394 27.1555 33.4245 27.3155 33.2476C27.4813 33.0707 27.6786 32.9348 27.9073 32.84C28.1417 32.7452 28.4046 32.6978 28.6962 32.6978C29.2165 32.6978 29.6424 32.8558 29.974 33.1718C30.3113 33.4814 30.5143 33.9079 30.5829 34.4514H29.8111C29.771 34.148 29.6481 33.9079 29.4423 33.731C29.2422 33.5477 28.9935 33.4561 28.6962 33.4561C28.3532 33.4561 28.0816 33.5699 27.8815 33.7973C27.6814 34.0248 27.5814 34.3376 27.5814 34.7357V36.0627C27.5814 36.4608 27.6786 36.7736 27.873 37.0011C28.0731 37.2286 28.3475 37.3423 28.6962 37.3423C28.9935 37.3423 29.2422 37.2538 29.4423 37.0769C29.6481 36.8936 29.771 36.6504 29.8111 36.3471H30.5829C30.5085 36.8968 30.3027 37.3265 29.9654 37.6361C29.6338 37.9458 29.2108 38.1006 28.6962 38.1006Z" fill="#FBFBFC"/>
<path d="M31.9859 32.7926H32.7234V35.8257C32.7234 35.99 32.7206 36.1543 32.7149 36.3186C32.7091 36.4766 32.7006 36.6188 32.6891 36.7452C32.6834 36.8652 32.6777 36.9632 32.672 37.039C32.6663 37.1148 32.6634 37.1527 32.6634 37.1527H32.7234C32.7692 37.0263 32.8149 36.8968 32.8606 36.7641C32.9064 36.6567 32.9521 36.5398 32.9978 36.4134C33.0493 36.2807 33.1008 36.1575 33.1522 36.0437L34.6015 32.7926H35.5877V38.0058H34.8502V34.9537C34.8502 34.5809 34.8588 34.2713 34.8759 34.0248C34.8816 33.8858 34.8874 33.7563 34.8931 33.6362H34.833C34.793 33.7436 34.7501 33.8574 34.7044 33.9774C34.6644 34.0849 34.6186 34.2049 34.5672 34.3376C34.5157 34.464 34.4586 34.5999 34.3957 34.7452L32.9721 38.0058H31.9859V32.7926Z" fill="#FBFBFC"/>
<path d="M38.9803 38.1006C38.6887 38.1006 38.4258 38.0532 38.1913 37.9584C37.9627 37.8636 37.7654 37.7278 37.5996 37.5508C37.4395 37.3739 37.3138 37.159 37.2223 36.9063C37.1365 36.6535 37.0937 36.3723 37.0937 36.0627V34.7357C37.0937 34.4261 37.1365 34.1449 37.2223 33.8921C37.3138 33.6394 37.4395 33.4245 37.5996 33.2476C37.7654 33.0707 37.9627 32.9348 38.1913 32.84C38.4258 32.7452 38.6887 32.6978 38.9803 32.6978C39.5006 32.6978 39.9265 32.8558 40.2581 33.1718C40.5954 33.4814 40.7984 33.9079 40.867 34.4514H40.0951C40.0551 34.148 39.9322 33.9079 39.7264 33.731C39.5263 33.5477 39.2776 33.4561 38.9803 33.4561C38.6373 33.4561 38.3657 33.5699 38.1656 33.7973C37.9655 34.0248 37.8655 34.3376 37.8655 34.7357V36.0627C37.8655 36.4608 37.9627 36.7736 38.157 37.0011C38.3571 37.2286 38.6316 37.3423 38.9803 37.3423C39.2776 37.3423 39.5263 37.2538 39.7264 37.0769C39.9322 36.8936 40.0551 36.6504 40.0951 36.3471H40.867C40.7926 36.8968 40.5868 37.3265 40.2495 37.6361C39.9179 37.9458 39.4949 38.1006 38.9803 38.1006Z" fill="#FBFBFC"/>
<path d="M41.8841 32.7926H46.2577V33.5414H44.4654V38.0058H43.6764V33.5414H41.8841V32.7926Z" fill="#FBFBFC"/>
<path d="M49.2129 38.1006C48.6241 38.1006 48.161 37.9236 47.8237 37.5698C47.4921 37.2159 47.3263 36.7294 47.3263 36.1101V34.6883C47.3263 34.0691 47.4921 33.5825 47.8237 33.2286C48.161 32.8748 48.6241 32.6978 49.2129 32.6978C49.8018 32.6978 50.262 32.8748 50.5936 33.2286C50.9309 33.5825 51.0996 34.0691 51.0996 34.6883V35.6456H48.0981V36.0627C48.0981 36.4608 48.1953 36.7736 48.3897 37.0011C48.5898 37.2286 48.8642 37.3423 49.2129 37.3423C49.4702 37.3423 49.6932 37.2981 49.8818 37.2096C50.0705 37.1211 50.2106 36.9916 50.3021 36.821H51.0739C50.9767 37.2191 50.7594 37.5319 50.4221 37.7593C50.0905 37.9868 49.6875 38.1006 49.2129 38.1006ZM50.3278 34.9348V34.6883C50.3278 34.2965 50.2306 33.9932 50.0362 33.7784C49.8418 33.5635 49.5674 33.4561 49.2129 33.4561C48.8585 33.4561 48.5841 33.5635 48.3897 33.7784C48.1953 33.9932 48.0981 34.2965 48.0981 34.6883V34.9348H50.3278Z" fill="#FBFBFC"/>
<path d="M53.3431 32.7926L54.132 34.8684C54.1606 34.9379 54.1863 35.0201 54.2092 35.1149C54.2378 35.2033 54.2607 35.2855 54.2778 35.3613C54.3007 35.4561 54.3236 35.5477 54.3464 35.6362H54.3979C54.4207 35.5477 54.4465 35.4561 54.4751 35.3613C54.4979 35.2855 54.5208 35.2033 54.5437 35.1149C54.5665 35.0201 54.5923 34.9379 54.6208 34.8684L55.3669 32.7926H56.3274V38.0058H55.6156V34.8305C55.6156 34.7294 55.6185 34.6157 55.6242 34.4893C55.6356 34.3629 55.6471 34.2397 55.6585 34.1196C55.6642 33.9806 55.6756 33.8416 55.6928 33.7026H55.6413C55.5956 33.8479 55.5527 33.9901 55.5127 34.1291C55.4727 34.2492 55.4298 34.3724 55.3841 34.4988C55.3441 34.6251 55.3069 34.7357 55.2726 34.8305L54.7238 36.3471H54.0034L53.4546 34.8305C53.4202 34.7294 53.3802 34.6157 53.3345 34.4893C53.2945 34.3566 53.2545 34.2334 53.2144 34.1196C53.1687 33.9806 53.123 33.8384 53.0772 33.6931H53.0343C53.0458 33.8321 53.0572 33.9711 53.0686 34.1101C53.0744 34.2239 53.0801 34.3471 53.0858 34.4798C53.0915 34.6062 53.0944 34.7231 53.0944 34.8305V38.0058H52.3826V32.7926H53.3431Z" fill="#FBFBFC"/>
<path d="M57.4646 36.4892C57.4646 36.2428 57.5018 36.0216 57.5761 35.8257C57.6561 35.6235 57.7676 35.4529 57.9105 35.3139C58.0592 35.1749 58.2364 35.0675 58.4422 34.9916C58.6481 34.9158 58.8796 34.8779 59.1369 34.8779H60.5433V34.4514C60.5433 34.1291 60.4461 33.8795 60.2517 33.7026C60.063 33.5193 59.7886 33.4277 59.4284 33.4277C59.1655 33.4277 58.9396 33.4814 58.751 33.5888C58.568 33.6962 58.4451 33.8447 58.3822 34.0343H57.6104C57.6904 33.6236 57.8934 33.2981 58.2193 33.058C58.5509 32.8179 58.9596 32.6978 59.4456 32.6978C60.0287 32.6978 60.4861 32.8495 60.8177 33.1528C61.1493 33.4498 61.3151 33.8669 61.3151 34.404V38.0058H60.6119V37.0105H60.5433C60.469 37.3455 60.2946 37.6109 60.0202 37.8067C59.7457 38.0026 59.4113 38.1006 59.0168 38.1006C58.5423 38.1006 58.165 37.9552 57.8848 37.6646C57.6047 37.3739 57.4646 36.9821 57.4646 36.4892ZM59.1883 37.3992C59.3827 37.3992 59.5628 37.3707 59.7286 37.3139C59.8944 37.257 60.0373 37.178 60.1574 37.0769C60.2774 36.9695 60.3718 36.8463 60.4404 36.7072C60.509 36.5682 60.5433 36.4166 60.5433 36.2523V35.5414H59.154C58.8682 35.5414 58.6423 35.6235 58.4765 35.7878C58.3165 35.9521 58.2364 36.1796 58.2364 36.4703C58.2364 36.7609 58.3193 36.9884 58.4851 37.1527C58.6509 37.317 58.8853 37.3992 59.1883 37.3992Z" fill="#FBFBFC"/>
<path d="M68.6663 36.0627C68.6663 36.4608 68.7635 36.7736 68.9579 37.0011C69.158 37.2286 69.4324 37.3423 69.7811 37.3423C70.1242 37.3423 70.3957 37.2286 70.5958 37.0011C70.7959 36.7736 70.896 36.4608 70.896 36.0627V34.7357C70.896 34.3376 70.7959 34.0248 70.5958 33.7973C70.3957 33.5699 70.1242 33.4561 69.7811 33.4561C69.4381 33.4561 69.1666 33.5699 68.9665 33.7973C68.7664 34.0248 68.6663 34.3376 68.6663 34.7357V36.0627ZM67.8945 34.7357C67.8945 34.4198 67.9374 34.1386 68.0231 33.8921C68.1146 33.6394 68.2404 33.4245 68.4005 33.2476C68.5663 33.0707 68.7635 32.9348 68.9922 32.84C69.2266 32.7452 69.4896 32.6978 69.7811 32.6978C70.3643 32.6978 70.8245 32.8779 71.1618 33.2381C71.4991 33.5983 71.6678 34.0943 71.6678 34.7262V36.0627C71.6678 36.3786 71.6249 36.663 71.5391 36.9158C71.4534 37.1685 71.3276 37.3834 71.1618 37.5603C71.0017 37.7309 70.8045 37.8636 70.5701 37.9584C70.3357 38.0532 70.0727 38.1006 69.7811 38.1006C69.4896 38.1006 69.2266 38.0532 68.9922 37.9584C68.7635 37.8636 68.5663 37.7278 68.4005 37.5508C68.2404 37.3739 68.1146 37.159 68.0231 36.9063C67.9374 36.6535 67.8945 36.3723 67.8945 36.0627V34.7357Z" fill="#FBFBFC"/>
<path d="M73.8941 32.7926V34.9916H75.9523V32.7926H76.7241V38.0058H75.9523V35.7689H73.8941V38.0058H73.1223V32.7926H73.8941Z" fill="#FBFBFC"/>
<path d="M78.5902 32.7926H81.8661V38.0058H81.0943V33.5699H79.3535L79.3106 35.731C79.3049 36.148 79.2706 36.505 79.2077 36.802C79.1505 37.0927 79.0647 37.3328 78.9504 37.5224C78.8361 37.7056 78.6874 37.8415 78.5045 37.93C78.3272 38.0121 78.1128 38.0532 77.8613 38.0532H77.664V37.257H77.8184C77.9499 37.257 78.0585 37.2317 78.1443 37.1812C78.2358 37.1243 78.3101 37.0358 78.3673 36.9158C78.4244 36.7957 78.4644 36.6346 78.4873 36.4324C78.5159 36.2302 78.5331 35.9837 78.5388 35.693L78.5902 32.7926Z" fill="#FBFBFC"/>
<path d="M83.1749 36.4892C83.1749 36.2428 83.212 36.0216 83.2863 35.8257C83.3664 35.6235 83.4779 35.4529 83.6208 35.3139C83.7694 35.1749 83.9467 35.0675 84.1525 34.9916C84.3583 34.9158 84.5898 34.8779 84.8471 34.8779H86.2535V34.4514C86.2535 34.1291 86.1563 33.8795 85.9619 33.7026C85.7733 33.5193 85.4989 33.4277 85.1387 33.4277C84.8757 33.4277 84.6499 33.4814 84.4612 33.5888C84.2783 33.6962 84.1553 33.8447 84.0924 34.0343H83.3206C83.4007 33.6236 83.6036 33.2981 83.9295 33.058C84.2611 32.8179 84.6699 32.6978 85.1558 32.6978C85.739 32.6978 86.1963 32.8495 86.5279 33.1528C86.8595 33.4498 87.0253 33.8669 87.0253 34.404V38.0058H86.3221V37.0105H86.2535C86.1792 37.3455 86.0048 37.6109 85.7304 37.8067C85.456 38.0026 85.1215 38.1006 84.727 38.1006C84.2525 38.1006 83.8752 37.9552 83.5951 37.6646C83.3149 37.3739 83.1749 36.9821 83.1749 36.4892ZM84.8986 37.3992C85.0929 37.3992 85.273 37.3707 85.4388 37.3139C85.6046 37.257 85.7475 37.178 85.8676 37.0769C85.9877 36.9695 86.082 36.8463 86.1506 36.7072C86.2192 36.5682 86.2535 36.4166 86.2535 36.2523V35.5414H84.8643C84.5784 35.5414 84.3526 35.6235 84.1868 35.7878C84.0267 35.9521 83.9467 36.1796 83.9467 36.4703C83.9467 36.7609 84.0296 36.9884 84.1954 37.1527C84.3612 37.317 84.5955 37.3992 84.8986 37.3992Z" fill="#FBFBFC"/>
<path d="M88.5484 32.7926H89.2859V35.8257C89.2859 35.99 89.2831 36.1543 89.2774 36.3186C89.2717 36.4766 89.2631 36.6188 89.2516 36.7452C89.2459 36.8652 89.2402 36.9632 89.2345 37.039C89.2288 37.1148 89.2259 37.1527 89.2259 37.1527H89.2859C89.3317 37.0263 89.3774 36.8968 89.4232 36.7641C89.4689 36.6567 89.5146 36.5398 89.5604 36.4134C89.6118 36.2807 89.6633 36.1575 89.7147 36.0437L91.164 32.7926H92.1502V38.0058H91.4127V34.9537C91.4127 34.5809 91.4213 34.2713 91.4384 34.0248C91.4442 33.8858 91.4499 33.7563 91.4556 33.6362H91.3956C91.3555 33.7436 91.3127 33.8574 91.2669 33.9774C91.2269 34.0849 91.1812 34.2049 91.1297 34.3376C91.0783 34.464 91.0211 34.5999 90.9582 34.7452L89.5346 38.0058H88.5484V32.7926ZM88.8915 30.5652H89.5346C89.5346 30.78 89.609 30.9443 89.7576 31.0581C89.9062 31.1718 90.1006 31.2287 90.3408 31.2287C90.5809 31.2287 90.7781 31.1718 90.9325 31.0581C91.0868 30.9443 91.164 30.78 91.164 30.5652H91.8072C91.8072 30.7548 91.77 30.9285 91.6957 31.0865C91.6214 31.2445 91.5185 31.3803 91.387 31.4941C91.2555 31.6078 91.1011 31.6963 90.9239 31.7595C90.7467 31.8163 90.5551 31.8448 90.3493 31.8448C90.1435 31.8448 89.952 31.8163 89.7748 31.7595C89.5975 31.6963 89.4432 31.6078 89.3117 31.4941C89.1802 31.3803 89.0773 31.2445 89.0029 31.0865C88.9286 30.9285 88.8915 30.7548 88.8915 30.5652Z" fill="#FBFBFC"/>
<path d="M94.4623 32.7926V34.9916H96.5204V32.7926H97.2923V38.0058H96.5204V35.7689H94.4623V38.0058H93.6905V32.7926H94.4623Z" fill="#FBFBFC"/>
<path d="M98.9183 34.4988H102.349V35.257H98.9183V34.4988Z" fill="#FBFBFC"/>
<path d="M107.791 32.7926V33.5699H104.875V38.0058H104.103V32.7926H107.791Z" fill="#FBFBFC"/>
<path d="M109.803 36.0627C109.803 36.4608 109.9 36.7736 110.094 37.0011C110.294 37.2286 110.569 37.3423 110.918 37.3423C111.261 37.3423 111.532 37.2286 111.732 37.0011C111.932 36.7736 112.032 36.4608 112.032 36.0627V34.7357C112.032 34.3376 111.932 34.0248 111.732 33.7973C111.532 33.5699 111.261 33.4561 110.918 33.4561C110.574 33.4561 110.303 33.5699 110.103 33.7973C109.903 34.0248 109.803 34.3376 109.803 34.7357V36.0627ZM109.031 34.7357C109.031 34.4198 109.074 34.1386 109.16 33.8921C109.251 33.6394 109.377 33.4245 109.537 33.2476C109.703 33.0707 109.9 32.9348 110.129 32.84C110.363 32.7452 110.626 32.6978 110.918 32.6978C111.501 32.6978 111.961 32.8779 112.298 33.2381C112.636 33.5983 112.804 34.0943 112.804 34.7262V36.0627C112.804 36.3786 112.761 36.663 112.676 36.9158C112.59 37.1685 112.464 37.3834 112.298 37.5603C112.138 37.7309 111.941 37.8636 111.706 37.9584C111.472 38.0532 111.209 38.1006 110.918 38.1006C110.626 38.1006 110.363 38.0532 110.129 37.9584C109.9 37.8636 109.703 37.7278 109.537 37.5508C109.377 37.3739 109.251 37.159 109.16 36.9063C109.074 36.6535 109.031 36.3723 109.031 36.0627V34.7357Z" fill="#FBFBFC"/>
<path d="M114.585 32.7926H117.86V38.0058H117.089V33.5699H115.348L115.305 35.731C115.299 36.148 115.265 36.505 115.202 36.802C115.145 37.0927 115.059 37.3328 114.945 37.5224C114.83 37.7056 114.682 37.8415 114.499 37.93C114.322 38.0121 114.107 38.0532 113.856 38.0532H113.658V37.257H113.813C113.944 37.257 114.053 37.2317 114.139 37.1812C114.23 37.1243 114.304 37.0358 114.362 36.9158C114.419 36.7957 114.459 36.6346 114.482 36.4324C114.51 36.2302 114.527 35.9837 114.533 35.693L114.585 32.7926Z" fill="#FBFBFC"/>
<path d="M120.087 36.0627C120.087 36.4608 120.184 36.7736 120.378 37.0011C120.578 37.2286 120.853 37.3423 121.202 37.3423C121.545 37.3423 121.816 37.2286 122.016 37.0011C122.216 36.7736 122.316 36.4608 122.316 36.0627V34.7357C122.316 34.3376 122.216 34.0248 122.016 33.7973C121.816 33.5699 121.545 33.4561 121.202 33.4561C120.859 33.4561 120.587 33.5699 120.387 33.7973C120.187 34.0248 120.087 34.3376 120.087 34.7357V36.0627ZM119.315 34.7357C119.315 34.4198 119.358 34.1386 119.444 33.8921C119.535 33.6394 119.661 33.4245 119.821 33.2476C119.987 33.0707 120.184 32.9348 120.413 32.84C120.647 32.7452 120.91 32.6978 121.202 32.6978C121.785 32.6978 122.245 32.8779 122.582 33.2381C122.92 33.5983 123.088 34.0943 123.088 34.7262V36.0627C123.088 36.3786 123.045 36.663 122.96 36.9158C122.874 37.1685 122.748 37.3834 122.582 37.5603C122.422 37.7309 122.225 37.8636 121.991 37.9584C121.756 38.0532 121.493 38.1006 121.202 38.1006C120.91 38.1006 120.647 38.0532 120.413 37.9584C120.184 37.8636 119.987 37.7278 119.821 37.5508C119.661 37.3739 119.535 37.159 119.444 36.9063C119.358 36.6535 119.315 36.3723 119.315 36.0627V34.7357Z" fill="#FBFBFC"/>
<path d="M126.395 38.1006C126.104 38.1006 125.841 38.0532 125.606 37.9584C125.377 37.8636 125.18 37.7278 125.014 37.5508C124.854 37.3739 124.729 37.159 124.637 36.9063C124.551 36.6535 124.508 36.3723 124.508 36.0627V34.7357C124.508 34.4261 124.551 34.1449 124.637 33.8921C124.729 33.6394 124.854 33.4245 125.014 33.2476C125.18 33.0707 125.377 32.9348 125.606 32.84C125.841 32.7452 126.104 32.6978 126.395 32.6978C126.915 32.6978 127.341 32.8558 127.673 33.1718C128.01 33.4814 128.213 33.9079 128.282 34.4514H127.51C127.47 34.148 127.347 33.9079 127.141 33.731C126.941 33.5477 126.692 33.4561 126.395 33.4561C126.052 33.4561 125.781 33.5699 125.58 33.7973C125.38 34.0248 125.28 34.3376 125.28 34.7357V36.0627C125.28 36.4608 125.377 36.7736 125.572 37.0011C125.772 37.2286 126.046 37.3423 126.395 37.3423C126.692 37.3423 126.941 37.2538 127.141 37.0769C127.347 36.8936 127.47 36.6504 127.51 36.3471H128.282C128.207 36.8968 128.002 37.3265 127.664 37.6361C127.333 37.9458 126.91 38.1006 126.395 38.1006Z" fill="#FBFBFC"/>
<path d="M130.371 36.0627C130.371 36.4608 130.468 36.7736 130.662 37.0011C130.863 37.2286 131.137 37.3423 131.486 37.3423C131.829 37.3423 132.1 37.2286 132.3 37.0011C132.5 36.7736 132.601 36.4608 132.601 36.0627V34.7357C132.601 34.3376 132.5 34.0248 132.3 33.7973C132.1 33.5699 131.829 33.4561 131.486 33.4561C131.143 33.4561 130.871 33.5699 130.671 33.7973C130.471 34.0248 130.371 34.3376 130.371 34.7357V36.0627ZM129.599 34.7357C129.599 34.4198 129.642 34.1386 129.728 33.8921C129.819 33.6394 129.945 33.4245 130.105 33.2476C130.271 33.0707 130.468 32.9348 130.697 32.84C130.931 32.7452 131.194 32.6978 131.486 32.6978C132.069 32.6978 132.529 32.8779 132.866 33.2381C133.204 33.5983 133.372 34.0943 133.372 34.7262V36.0627C133.372 36.3786 133.329 36.663 133.244 36.9158C133.158 37.1685 133.032 37.3834 132.866 37.5603C132.706 37.7309 132.509 37.8636 132.275 37.9584C132.04 38.0532 131.777 38.1006 131.486 38.1006C131.194 38.1006 130.931 38.0532 130.697 37.9584C130.468 37.8636 130.271 37.7278 130.105 37.5508C129.945 37.3739 129.819 37.159 129.728 36.9063C129.642 36.6535 129.599 36.3723 129.599 36.0627V34.7357Z" fill="#FBFBFC"/>
<path d="M136.945 32.7926C137.437 32.7926 137.817 32.9158 138.086 33.1623C138.354 33.4024 138.489 33.7405 138.489 34.1765C138.489 34.4988 138.4 34.7547 138.223 34.9442C138.051 35.1338 137.805 35.2381 137.485 35.257V35.3139C137.845 35.3202 138.12 35.4276 138.309 35.6362C138.503 35.8384 138.6 36.1322 138.6 36.5177C138.6 36.9916 138.457 37.3581 138.171 37.6172C137.891 37.8762 137.491 38.0058 136.971 38.0058H134.827V32.7926H136.945ZM135.59 35.731V37.257H136.971C137.245 37.257 137.457 37.1906 137.605 37.0579C137.754 36.9252 137.828 36.7388 137.828 36.4987C137.828 36.2523 137.754 36.0627 137.605 35.93C137.457 35.7973 137.245 35.731 136.971 35.731H135.59ZM136.945 34.9916C137.185 34.9916 137.374 34.9284 137.511 34.8021C137.648 34.6757 137.717 34.4988 137.717 34.2713C137.717 34.0438 137.648 33.8669 137.511 33.7405C137.38 33.6078 137.191 33.5414 136.945 33.5414H135.59V34.9916H136.945Z" fill="#FBFBFC"/>
<path d="M139.737 36.4892C139.737 36.2428 139.775 36.0216 139.849 35.8257C139.929 35.6235 140.04 35.4529 140.183 35.3139C140.332 35.1749 140.509 35.0675 140.715 34.9916C140.921 34.9158 141.152 34.8779 141.41 34.8779H142.816V34.4514C142.816 34.1291 142.719 33.8795 142.524 33.7026C142.336 33.5193 142.061 33.4277 141.701 33.4277C141.438 33.4277 141.212 33.4814 141.024 33.5888C140.841 33.6962 140.718 33.8447 140.655 34.0343H139.883C139.963 33.6236 140.166 33.2981 140.492 33.058C140.824 32.8179 141.232 32.6978 141.718 32.6978C142.301 32.6978 142.759 32.8495 143.09 33.1528C143.422 33.4498 143.588 33.8669 143.588 34.404V38.0058H142.885V37.0105H142.816C142.742 37.3455 142.567 37.6109 142.293 37.8067C142.018 38.0026 141.684 38.1006 141.29 38.1006C140.815 38.1006 140.438 37.9552 140.158 37.6646C139.877 37.3739 139.737 36.9821 139.737 36.4892ZM141.461 37.3992C141.655 37.3992 141.836 37.3707 142.001 37.3139C142.167 37.257 142.31 37.178 142.43 37.0769C142.55 36.9695 142.645 36.8463 142.713 36.7072C142.782 36.5682 142.816 36.4166 142.816 36.2523V35.5414H141.427C141.141 35.5414 140.915 35.6235 140.749 35.7878C140.589 35.9521 140.509 36.1796 140.509 36.4703C140.509 36.7609 140.592 36.9884 140.758 37.1527C140.924 37.317 141.158 37.3992 141.461 37.3992Z" fill="#FBFBFC"/>
<path d="M145.883 32.7926V34.9916H147.941V32.7926H148.713V38.0058H147.941V35.7689H145.883V38.0058H145.111V32.7926H145.883Z" fill="#FBFBFC"/>
<path d="M150.253 32.7926H150.991V35.8257C150.991 35.99 150.988 36.1543 150.982 36.3186C150.976 36.4766 150.968 36.6188 150.956 36.7452C150.95 36.8652 150.945 36.9632 150.939 37.039C150.933 37.1148 150.93 37.1527 150.93 37.1527H150.991C151.036 37.0263 151.082 36.8968 151.128 36.7641C151.173 36.6567 151.219 36.5398 151.265 36.4134C151.316 36.2807 151.368 36.1575 151.419 36.0437L152.869 32.7926H153.855V38.0058H153.117V34.9537C153.117 34.5809 153.126 34.2713 153.143 34.0248C153.149 33.8858 153.154 33.7563 153.16 33.6362H153.1C153.06 33.7436 153.017 33.8574 152.971 33.9774C152.931 34.0849 152.886 34.2049 152.834 34.3376C152.783 34.464 152.726 34.5999 152.663 34.7452L151.239 38.0058H150.253V32.7926Z" fill="#FBFBFC"/>
<path d="M156.33 35.9964C155.97 35.9016 155.687 35.7215 155.481 35.4561C155.281 35.1844 155.181 34.8431 155.181 34.4324C155.181 33.9206 155.332 33.5193 155.635 33.2286C155.938 32.938 156.358 32.7926 156.896 32.7926H158.997V38.0058H158.225V36.0627H157.127L156.004 38.0058H155.095L156.33 35.9964ZM156.896 33.5509C156.604 33.5509 156.376 33.6299 156.21 33.7879C156.05 33.9395 155.97 34.1544 155.97 34.4324C155.97 34.7041 156.05 34.919 156.21 35.0769C156.376 35.2286 156.604 35.3044 156.896 35.3044H158.225V33.5509H156.896Z" fill="#FBFBFC"/>
<path d="M166.451 32.7926V34.9916H168.509V32.7926H169.281V38.0058H168.509V35.7689H166.451V38.0058H165.679V32.7926H166.451Z" fill="#FBFBFC"/>
<path d="M170.59 36.4892C170.59 36.2428 170.627 36.0216 170.701 35.8257C170.781 35.6235 170.893 35.4529 171.036 35.3139C171.184 35.1749 171.361 35.0675 171.567 34.9916C171.773 34.9158 172.005 34.8779 172.262 34.8779H173.668V34.4514C173.668 34.1291 173.571 33.8795 173.377 33.7026C173.188 33.5193 172.914 33.4277 172.553 33.4277C172.29 33.4277 172.065 33.4814 171.876 33.5888C171.693 33.6962 171.57 33.8447 171.507 34.0343H170.735C170.815 33.6236 171.018 33.2981 171.344 33.058C171.676 32.8179 172.085 32.6978 172.571 32.6978C173.154 32.6978 173.611 32.8495 173.943 33.1528C174.274 33.4498 174.44 33.8669 174.44 34.404V38.0058H173.737V37.0105H173.668C173.594 37.3455 173.42 37.6109 173.145 37.8067C172.871 38.0026 172.536 38.1006 172.142 38.1006C171.667 38.1006 171.29 37.9552 171.01 37.6646C170.73 37.3739 170.59 36.9821 170.59 36.4892ZM172.313 37.3992C172.508 37.3992 172.688 37.3707 172.854 37.3139C173.019 37.257 173.162 37.178 173.282 37.0769C173.402 36.9695 173.497 36.8463 173.565 36.7072C173.634 36.5682 173.668 36.4166 173.668 36.2523V35.5414H172.279C171.993 35.5414 171.767 35.6235 171.602 35.7878C171.441 35.9521 171.361 36.1796 171.361 36.4703C171.361 36.7609 171.444 36.9884 171.61 37.1527C171.776 37.317 172.01 37.3992 172.313 37.3992Z" fill="#FBFBFC"/>
<path d="M181.02 33.7879C181.02 33.3708 181.071 32.9948 181.174 32.6599C181.283 32.325 181.434 32.0438 181.628 31.8163C181.823 31.5825 182.06 31.4025 182.34 31.2761C182.626 31.1497 182.943 31.0865 183.292 31.0865H184.578V31.9396H183.292C182.829 31.9396 182.463 32.107 182.194 32.4419C181.926 32.7705 181.791 33.2192 181.791 33.7879V34.2144H181.877C181.923 34.0375 181.997 33.8795 182.1 33.7405C182.197 33.6204 182.329 33.513 182.495 33.4182C182.66 33.3171 182.883 33.2666 183.163 33.2666C183.672 33.2666 184.07 33.4435 184.355 33.7973C184.647 34.1449 184.793 34.6315 184.793 35.257V36.0627C184.793 36.3786 184.75 36.663 184.664 36.9158C184.578 37.1685 184.453 37.3834 184.287 37.5603C184.127 37.7309 183.93 37.8636 183.695 37.9584C183.461 38.0532 183.198 38.1006 182.906 38.1006C182.317 38.1006 181.854 37.9205 181.517 37.5603C181.185 37.2001 181.02 36.7009 181.02 36.0627V33.7879ZM181.791 36.0627C181.791 36.4608 181.891 36.7736 182.091 37.0011C182.292 37.2286 182.563 37.3423 182.906 37.3423C183.255 37.3423 183.526 37.2286 183.721 37.0011C183.921 36.7736 184.021 36.4608 184.021 36.0627V35.257C184.021 34.8589 183.921 34.5461 183.721 34.3187C183.526 34.0912 183.255 33.9774 182.906 33.9774C182.563 33.9774 182.292 34.0912 182.091 34.3187C181.891 34.5461 181.791 34.8589 181.791 35.257V36.0627Z" fill="#FBFBFC"/>
<path d="M186.573 32.7926H189.849V38.0058H189.077V33.5699H187.336L187.294 35.731C187.288 36.148 187.254 36.505 187.191 36.802C187.133 37.0927 187.048 37.3328 186.933 37.5224C186.819 37.7056 186.67 37.8415 186.487 37.93C186.31 38.0121 186.096 38.0532 185.844 38.0532H185.647V37.257H185.801C185.933 37.257 186.042 37.2317 186.127 37.1812C186.219 37.1243 186.293 37.0358 186.35 36.9158C186.407 36.7957 186.447 36.6346 186.47 36.4324C186.499 36.2302 186.516 35.9837 186.522 35.693L186.573 32.7926Z" fill="#FBFBFC"/>
<path d="M192.075 36.0627C192.075 36.4608 192.173 36.7736 192.367 37.0011C192.567 37.2286 192.842 37.3423 193.19 37.3423C193.533 37.3423 193.805 37.2286 194.005 37.0011C194.205 36.7736 194.305 36.4608 194.305 36.0627V34.7357C194.305 34.3376 194.205 34.0248 194.005 33.7973C193.805 33.5699 193.533 33.4561 193.19 33.4561C192.847 33.4561 192.576 33.5699 192.376 33.7973C192.175 34.0248 192.075 34.3376 192.075 34.7357V36.0627ZM191.304 34.7357C191.304 34.4198 191.346 34.1386 191.432 33.8921C191.524 33.6394 191.65 33.4245 191.81 33.2476C191.975 33.0707 192.173 32.9348 192.401 32.84C192.636 32.7452 192.899 32.6978 193.19 32.6978C193.773 32.6978 194.234 32.8779 194.571 33.2381C194.908 33.5983 195.077 34.0943 195.077 34.7262V36.0627C195.077 36.3786 195.034 36.663 194.948 36.9158C194.863 37.1685 194.737 37.3834 194.571 37.5603C194.411 37.7309 194.214 37.8636 193.979 37.9584C193.745 38.0532 193.482 38.1006 193.19 38.1006C192.899 38.1006 192.636 38.0532 192.401 37.9584C192.173 37.8636 191.975 37.7278 191.81 37.5508C191.65 37.3739 191.524 37.159 191.432 36.9063C191.346 36.6535 191.304 36.3723 191.304 36.0627V34.7357Z" fill="#FBFBFC"/>
<path d="M196.557 38.0058V32.7926H197.329V34.9727H198.255L199.696 32.7926H200.579L198.898 35.3044L200.605 38.0058H199.696L198.264 35.731H197.329V38.0058H196.557Z" fill="#FBFBFC"/>
<path d="M203.303 36.5366C202.76 36.5366 202.331 36.366 202.016 36.0248C201.702 35.6836 201.545 35.2223 201.545 34.6409V32.7926H202.317V34.6409C202.317 34.9885 202.417 35.2665 202.617 35.475C202.817 35.6772 203.088 35.7783 203.431 35.7783C203.632 35.7783 203.8 35.7625 203.937 35.731C204.075 35.6994 204.186 35.6678 204.272 35.6362C204.369 35.5919 204.446 35.5445 204.503 35.494V32.7926H205.275V38.0058H204.503V36.821C204.503 36.7515 204.503 36.682 204.503 36.6125C204.509 36.5429 204.512 36.4798 204.512 36.4229C204.512 36.3597 204.515 36.2997 204.521 36.2428C204.515 36.2428 204.509 36.2459 204.503 36.2523C204.486 36.2649 204.449 36.287 204.392 36.3186C204.335 36.3502 204.255 36.3818 204.152 36.4134C204.055 36.445 203.935 36.4734 203.792 36.4987C203.654 36.524 203.492 36.5366 203.303 36.5366Z" fill="#FBFBFC"/>
<path d="M208.616 38.1006C208.028 38.1006 207.564 37.9236 207.227 37.5698C206.896 37.2159 206.73 36.7294 206.73 36.1101V34.6883C206.73 34.0691 206.896 33.5825 207.227 33.2286C207.564 32.8748 208.028 32.6978 208.616 32.6978C209.205 32.6978 209.665 32.8748 209.997 33.2286C210.334 33.5825 210.503 34.0691 210.503 34.6883V35.6456H207.502V36.0627C207.502 36.4608 207.599 36.7736 207.793 37.0011C207.993 37.2286 208.268 37.3423 208.616 37.3423C208.874 37.3423 209.097 37.2981 209.285 37.2096C209.474 37.1211 209.614 36.9916 209.706 36.821H210.477C210.38 37.2191 210.163 37.5319 209.826 37.7593C209.494 37.9868 209.091 38.1006 208.616 38.1006ZM209.731 34.9348V34.6883C209.731 34.2965 209.634 33.9932 209.44 33.7784C209.245 33.5635 208.971 33.4561 208.616 33.4561C208.262 33.4561 207.988 33.5635 207.793 33.7784C207.599 33.9932 207.502 34.2965 207.502 34.6883V34.9348H209.731Z" fill="#FBFBFC"/>
<path d="M211.958 32.7926H212.695V35.8257C212.695 35.99 212.692 36.1543 212.687 36.3186C212.681 36.4766 212.672 36.6188 212.661 36.7452C212.655 36.8652 212.649 36.9632 212.644 37.039C212.638 37.1148 212.635 37.1527 212.635 37.1527H212.695C212.741 37.0263 212.787 36.8968 212.832 36.7641C212.878 36.6567 212.924 36.5398 212.969 36.4134C213.021 36.2807 213.072 36.1575 213.124 36.0437L214.573 32.7926H215.559V38.0058H214.822V34.9537C214.822 34.5809 214.83 34.2713 214.848 34.0248C214.853 33.8858 214.859 33.7563 214.865 33.6362H214.805C214.765 33.7436 214.722 33.8574 214.676 33.9774C214.636 34.0849 214.59 34.2049 214.539 34.3376C214.487 34.464 214.43 34.5999 214.367 34.7452L212.944 38.0058H211.958V32.7926ZM212.301 30.5652H212.944C212.944 30.78 213.018 30.9443 213.167 31.0581C213.315 31.1718 213.51 31.2287 213.75 31.2287C213.99 31.2287 214.187 31.1718 214.342 31.0581C214.496 30.9443 214.573 30.78 214.573 30.5652H215.216C215.216 30.7548 215.179 30.9285 215.105 31.0865C215.031 31.2445 214.928 31.3803 214.796 31.4941C214.665 31.6078 214.51 31.6963 214.333 31.7595C214.156 31.8163 213.964 31.8448 213.758 31.8448C213.553 31.8448 213.361 31.8163 213.184 31.7595C213.007 31.6963 212.852 31.6078 212.721 31.4941C212.589 31.3803 212.486 31.2445 212.412 31.0865C212.338 30.9285 212.301 30.7548 212.301 30.5652Z" fill="#FBFBFC"/>
<path d="M217.871 32.7926V34.9916H219.93V32.7926H220.701V38.0058H219.93V35.7689H217.871V38.0058H217.1V32.7926H217.871Z" fill="#FBFBFC"/>
</svg>
