<svg width="464" height="280" viewBox="0 0 464 280" fill="none" xmlns="http://www.w3.org/2000/svg">
<g clip-path="url(#clip0_5234_166511)">
<path d="M230.865 280.162C349.532 280.162 445.731 270.301 445.731 258.138C445.731 245.974 349.532 236.113 230.865 236.113C112.198 236.113 16 245.974 16 258.138C16 270.301 112.198 280.162 230.865 280.162Z" fill="#49B3FF"/>
<path d="M391.247 37.8942C391.247 54.8983 404.989 68.6635 421.965 68.6635C438.941 68.6635 452.683 54.8983 452.683 37.8942C452.683 20.8902 438.941 7.125 421.965 7.125C404.989 7.125 391.247 20.8902 391.247 37.8942ZM407.576 37.8942C407.576 29.959 414.043 23.4813 421.965 23.4813C429.887 23.4813 436.354 29.959 436.354 37.8942C436.354 45.8295 429.887 52.3072 421.965 52.3072C414.043 52.3072 407.576 45.8295 407.576 37.8942Z" fill="#DFF7FE"/>
<path d="M416.145 8.42105H427.947L427.3 0H416.791L416.145 8.42105Z" fill="#DFF7FE"/>
<path d="M438.617 12.308L447.024 20.729L452.521 14.4133L445.084 6.96387L438.617 12.308Z" fill="#DFF7FE"/>
<path d="M451.713 31.0928V43.0766L460.12 42.4288V31.7405L451.713 31.0928Z" fill="#DFF7FE"/>
<path d="M447.671 53.7656L439.426 62.1867L445.731 67.5308L453.168 60.0814L447.671 53.7656Z" fill="#DFF7FE"/>
<path d="M429.078 66.8828H417.114L417.761 75.3039H428.27L429.078 66.8828Z" fill="#DFF7FE"/>
<path d="M406.444 62.8341L398.037 54.4131L392.702 60.8908L400.139 68.3402L406.444 62.8341Z" fill="#DFF7FE"/>
<path d="M393.348 44.0484V32.2266L384.941 32.8743V43.4007L393.348 44.0484Z" fill="#DFF7FE"/>
<path d="M397.39 21.5385L405.798 13.1174L399.331 7.61133L391.894 15.0607L397.39 21.5385Z" fill="#DFF7FE"/>
<path d="M307.823 116.113C307.823 136.518 324.314 153.036 344.685 153.036C365.056 153.036 381.546 136.518 381.546 116.113C381.546 95.7081 365.056 79.1899 344.685 79.1899C324.314 79.1899 307.823 95.7081 307.823 116.113ZM315.583 116.113C315.583 100.081 328.517 87.1251 344.523 87.1251C360.529 87.1251 373.463 100.081 373.463 116.113C373.463 132.145 360.529 145.101 344.523 145.101C328.679 145.101 315.583 132.145 315.583 116.113ZM307.823 116.113C307.823 136.518 324.314 153.036 344.685 153.036C365.056 153.036 381.546 136.518 381.546 116.113C381.546 95.7081 365.056 79.1899 344.685 79.1899C324.314 79.1899 307.823 95.7081 307.823 116.113ZM315.583 116.113C315.583 100.081 328.517 87.1251 344.523 87.1251C360.529 87.1251 373.463 100.081 373.463 116.113C373.463 132.145 360.529 145.101 344.523 145.101C328.679 145.101 315.583 132.145 315.583 116.113ZM282.602 116.113C282.602 150.445 310.41 178.299 344.685 178.299C378.96 178.299 406.768 150.445 406.768 116.113C406.768 81.781 378.96 53.9268 344.685 53.9268C310.41 53.9268 282.602 81.781 282.602 116.113ZM304.266 116.113C304.266 93.7648 322.373 75.6272 344.685 75.6272C366.996 75.6272 385.103 93.7648 385.103 116.113C385.103 138.461 366.996 156.599 344.685 156.599C322.373 156.437 304.266 138.299 304.266 116.113ZM307.823 116.113C307.823 136.518 324.314 153.036 344.685 153.036C365.056 153.036 381.546 136.518 381.546 116.113C381.546 95.7081 365.056 79.1899 344.685 79.1899C324.314 79.1899 307.823 95.7081 307.823 116.113ZM315.583 116.113C315.583 100.081 328.517 87.1251 344.523 87.1251C360.529 87.1251 373.463 100.081 373.463 116.113C373.463 132.145 360.529 145.101 344.523 145.101C328.679 145.101 315.583 132.145 315.583 116.113Z" fill="#DBE1FC"/>
<path d="M337.409 55.0606H351.475L350.181 40.8096H338.703L337.409 55.0606Z" fill="#DBE1FC"/>
<path d="M368.774 59.5945L381.062 66.72L387.044 53.6026L377.181 47.9346L368.774 59.5945Z" fill="#DBE1FC"/>
<path d="M393.834 79.1903L400.948 91.498L412.427 83.2389L406.768 73.3604L393.834 79.1903Z" fill="#DBE1FC"/>
<path d="M405.636 108.826V122.915L419.701 121.62V110.122L405.636 108.826Z" fill="#DBE1FC"/>
<path d="M401.109 140.243L393.995 152.551L406.929 158.543L412.588 148.664L401.109 140.243Z" fill="#DBE1FC"/>
<path d="M381.385 165.344L369.098 172.469L377.505 183.967L387.367 178.299L381.385 165.344Z" fill="#DBE1FC"/>
<path d="M351.96 177.166H337.732L339.187 191.255H350.505L351.96 177.166Z" fill="#DBE1FC"/>
<path d="M320.434 172.631L308.146 165.506L302.326 178.461L312.188 184.129L320.434 172.631Z" fill="#DBE1FC"/>
<path d="M295.535 152.874L288.422 140.566L276.781 148.987L282.44 158.704L295.535 152.874Z" fill="#DBE1FC"/>
<path d="M283.733 123.4V109.149L269.506 110.607V121.943L283.733 123.4Z" fill="#DBE1FC"/>
<path d="M288.26 91.8222L295.373 79.5145L282.278 73.6846L276.619 83.5631L288.26 91.8222Z" fill="#DBE1FC"/>
<path d="M307.822 66.8821L320.11 59.7566L311.864 48.0967L302.002 53.7647L307.822 66.8821Z" fill="#DBE1FC"/>
<path d="M191.902 62.3482C191.902 84.2105 209.525 101.862 231.351 101.862C253.177 101.862 270.799 84.2105 270.799 62.3482C270.799 40.4858 253.177 22.834 231.351 22.834C209.525 22.9959 191.902 40.6478 191.902 62.3482ZM212.92 62.3482C212.92 52.1457 221.165 43.8866 231.351 43.8866C241.536 43.8866 249.782 52.1457 249.782 62.3482C249.782 72.5506 241.536 80.8097 231.351 80.8097C221.004 80.8097 212.92 72.5506 212.92 62.3482Z" fill="#DFF7FE"/>
<path d="M223.591 24.6158H238.788L237.98 13.7656H224.561L223.591 24.6158Z" fill="#DFF7FE"/>
<path d="M252.53 29.6354L263.201 40.4856L270.153 32.2265L260.614 22.6719L252.53 29.6354Z" fill="#DFF7FE"/>
<path d="M269.345 53.7656V68.8264L280.015 68.0166V54.5753L269.345 53.7656Z" fill="#DFF7FE"/>
<path d="M264.171 82.5908L253.5 93.2791L261.584 100.405L271.123 90.8499L264.171 82.5908Z" fill="#DFF7FE"/>
<path d="M240.243 99.4336H225.046L225.854 110.122H239.273L240.243 99.4336Z" fill="#DFF7FE"/>
<path d="M211.303 94.2508L200.633 83.5625L193.681 91.8216L203.219 101.376L211.303 94.2508Z" fill="#DFF7FE"/>
<path d="M154.556 57.1656C162.316 57.1656 168.621 51.0118 168.621 43.2385C168.621 35.4652 162.478 29.1494 154.717 29.1494C146.957 29.1494 140.652 35.3033 140.652 43.0765C140.49 50.6879 146.795 57.0037 154.556 57.1656ZM142.268 42.9146C142.268 36.113 147.927 30.6069 154.717 30.6069C161.508 30.6069 167.005 36.2749 167.005 43.0765C167.005 49.8782 161.346 55.3842 154.556 55.3842C147.765 55.3842 142.268 49.8782 142.268 42.9146ZM154.556 57.1656C162.316 57.1656 168.621 51.0118 168.621 43.2385C168.621 35.4652 162.478 29.1494 154.717 29.1494C146.957 29.1494 140.652 35.3033 140.652 43.0765C140.49 50.6879 146.795 57.0037 154.556 57.1656ZM142.268 42.9146C142.268 36.113 147.927 30.6069 154.717 30.6069C161.508 30.6069 167.005 36.2749 167.005 43.0765C167.005 49.8782 161.346 55.3842 154.556 55.3842C147.765 55.3842 142.268 49.8782 142.268 42.9146ZM154.556 57.1656C162.316 57.1656 168.621 51.0118 168.621 43.2385C168.621 35.4652 162.478 29.1494 154.717 29.1494C146.957 29.1494 140.652 35.3033 140.652 43.0765C140.49 50.6879 146.795 57.0037 154.556 57.1656ZM142.268 42.9146C142.268 36.113 147.927 30.6069 154.717 30.6069C161.508 30.6069 167.005 36.2749 167.005 43.0765C167.005 49.8782 161.346 55.3842 154.556 55.3842C147.765 55.3842 142.268 49.8782 142.268 42.9146ZM154.394 72.7122C170.723 72.8741 184.142 59.5948 184.142 43.2385C184.304 26.8822 171.046 13.4409 154.717 13.4409C138.388 13.279 125.131 26.5583 124.969 42.9146C124.808 59.2709 138.065 72.5502 154.394 72.7122ZM138.388 42.9146C138.388 34.0077 145.825 26.7203 154.717 26.7203C163.609 26.7203 170.885 34.1697 170.885 43.0765C170.885 51.9834 163.448 59.2709 154.556 59.2709C145.502 59.2709 138.227 51.9834 138.388 42.9146ZM140.49 42.9146C140.49 50.6879 146.634 57.0037 154.394 57.0037C162.154 57.0037 168.46 50.8498 168.46 43.0765C168.46 35.3033 162.316 28.9875 154.556 28.9875C146.795 28.9875 140.49 35.1413 140.49 42.9146ZM142.268 42.9146C142.268 36.113 147.927 30.6069 154.717 30.6069C161.508 30.6069 167.005 36.2749 167.005 43.0765C167.005 49.8782 161.346 55.3842 154.556 55.3842C147.765 55.3842 142.268 49.8782 142.268 42.9146ZM154.556 57.1656C162.316 57.1656 168.621 51.0118 168.621 43.2385C168.621 35.4652 162.478 29.1494 154.717 29.1494C146.957 29.1494 140.652 35.3033 140.652 43.0765C140.49 50.6879 146.795 57.0037 154.556 57.1656ZM142.268 42.9146C142.268 36.113 147.927 30.6069 154.717 30.6069C161.508 30.6069 167.005 36.2749 167.005 43.0765C167.005 49.8782 161.346 55.3842 154.556 55.3842C147.765 55.3842 142.268 49.8782 142.268 42.9146ZM154.556 57.1656C162.316 57.1656 168.621 51.0118 168.621 43.2385C168.621 35.4652 162.478 29.1494 154.717 29.1494C146.957 29.1494 140.652 35.3033 140.652 43.0765C140.49 50.6879 146.795 57.0037 154.556 57.1656ZM142.268 42.9146C142.268 36.113 147.927 30.6069 154.717 30.6069C161.508 30.6069 167.005 36.2749 167.005 43.0765C167.005 49.8782 161.346 55.3842 154.556 55.3842C147.765 55.3842 142.268 49.8782 142.268 42.9146Z" fill="#DBE1FC"/>
<path d="M149.059 14.5747L160.376 14.7366L159.891 6.63948L149.705 6.47754L149.059 14.5747Z" fill="#DBE1FC"/>
<path d="M170.723 18.6234L178.645 26.7206L183.98 20.5667L176.866 13.2793L170.723 18.6234Z" fill="#DBE1FC"/>
<path d="M183.172 36.5986V48.0966L191.256 47.4488V37.4084L183.172 36.5986Z" fill="#DBE1FC"/>
<path d="M179.292 58.2998L171.208 66.397L177.19 71.7411L184.465 64.6156L179.292 58.2998Z" fill="#DBE1FC"/>
<path d="M161.184 70.9305L149.705 70.7686L150.352 78.8657L160.537 79.0277L161.184 70.9305Z" fill="#DBE1FC"/>
<path d="M139.52 66.8823L131.436 58.7852L126.263 64.939L133.376 72.2265L139.52 66.8823Z" fill="#DBE1FC"/>
<path d="M126.909 48.7452L127.071 37.4092L118.987 38.057V48.0974L126.909 48.7452Z" fill="#DBE1FC"/>
<path d="M130.951 27.2059L139.035 19.1088L132.891 13.7646L125.777 20.8902L130.951 27.2059Z" fill="#DBE1FC"/>
<path d="M194.489 68.6641V53.4414L183.818 54.2511V67.8544L194.489 68.6641Z" fill="#DFF7FE"/>
<path d="M52.8622 105.101C57.3891 105.263 61.1076 101.7 61.1076 97.1657C61.2693 92.6312 57.7124 88.9065 53.1855 88.9065C48.6586 88.7446 44.9401 92.3074 44.9401 96.8418C44.9401 101.214 48.497 104.939 52.8622 105.101ZM45.9102 96.8418C46.0719 92.9551 49.3053 89.7163 53.1855 89.8782C57.0657 90.0401 60.2992 93.279 60.1375 97.1657C59.9759 101.052 56.7424 104.291 52.8622 104.129C48.982 103.967 45.9102 100.728 45.9102 96.8418ZM52.8622 105.101C57.3891 105.263 61.1076 101.7 61.1076 97.1657C61.2693 92.6312 57.7124 88.9065 53.1855 88.9065C48.6586 88.7446 44.9401 92.3074 44.9401 96.8418C44.9401 101.214 48.497 104.939 52.8622 105.101ZM45.9102 96.8418C46.0719 92.9551 49.3053 89.7163 53.1855 89.8782C57.0657 90.0401 60.2992 93.279 60.1375 97.1657C59.9759 101.052 56.7424 104.291 52.8622 104.129C48.982 103.967 45.9102 100.728 45.9102 96.8418ZM52.8622 105.101C57.3891 105.263 61.1076 101.7 61.1076 97.1657C61.2693 92.6312 57.7124 88.9065 53.1855 88.9065C48.6586 88.7446 44.9401 92.3074 44.9401 96.8418C44.9401 101.214 48.497 104.939 52.8622 105.101ZM45.9102 96.8418C46.0719 92.9551 49.3053 89.7163 53.1855 89.8782C57.0657 90.0401 60.2992 93.279 60.1375 97.1657C59.9759 101.052 56.7424 104.291 52.8622 104.129C48.982 103.967 45.9102 100.728 45.9102 96.8418ZM52.7005 114.17C62.0776 114.332 69.9997 106.882 70.1614 97.4895C70.323 88.0968 62.886 80.1616 53.5089 79.9997C44.1318 79.8377 36.2097 87.2871 36.048 96.6798C35.7247 106.073 43.3234 113.846 52.7005 114.17ZM43.8084 96.8418C43.9701 91.6596 48.1736 87.611 53.3472 87.611C58.5208 87.7729 62.5627 91.9835 62.5627 97.1657C62.401 102.348 58.1974 106.396 53.0239 106.396C47.6886 106.234 43.6467 101.862 43.8084 96.8418ZM44.9401 96.8418C44.7785 101.376 48.3353 105.101 52.8622 105.101C57.3891 105.263 61.1076 101.7 61.1076 97.1657C61.2693 92.6312 57.7124 88.9065 53.1855 88.9065C48.8203 88.7446 45.1018 92.3074 44.9401 96.8418ZM45.9102 96.8418C46.0719 92.9551 49.3053 89.7163 53.1855 89.8782C57.0657 90.0401 60.2992 93.279 60.1375 97.1657C59.9759 101.052 56.7424 104.291 52.8622 104.129C48.982 103.967 45.9102 100.728 45.9102 96.8418ZM52.8622 105.101C57.3891 105.263 61.1076 101.7 61.1076 97.1657C61.2693 92.6312 57.7124 88.9065 53.1855 88.9065C48.6586 88.7446 44.9401 92.3074 44.9401 96.8418C44.9401 101.214 48.497 104.939 52.8622 105.101ZM45.9102 96.8418C46.0719 92.9551 49.3053 89.7163 53.1855 89.8782C57.0657 90.0401 60.2992 93.279 60.1375 97.1657C59.9759 101.052 56.7424 104.291 52.8622 104.129C48.982 103.967 45.9102 100.728 45.9102 96.8418ZM52.8622 105.101C57.3891 105.263 61.1076 101.7 61.1076 97.1657C61.2693 92.6312 57.7124 88.9065 53.1855 88.9065C48.6586 88.7446 44.9401 92.3074 44.9401 96.8418C44.9401 101.214 48.497 104.939 52.8622 105.101ZM45.9102 96.8418C46.0719 92.9551 49.3053 89.7163 53.1855 89.8782C57.0657 90.0401 60.2992 93.279 60.1375 97.1657C59.9759 101.052 56.7424 104.291 52.8622 104.129C48.982 103.967 45.9102 100.728 45.9102 96.8418Z" fill="#DBE1FC"/>
<path d="M50.1133 80.4856L56.7419 80.6475L56.5803 75.9512H50.5983L50.1133 80.4856Z" fill="#DBE1FC"/>
<path d="M62.5625 83.0771L67.0894 87.7734L70.3229 84.3726L66.281 80.1621L62.5625 83.0771Z" fill="#DBE1FC"/>
<path d="M69.6763 93.6025L69.5146 100.242L74.2032 99.9183L74.3649 94.0884L69.6763 93.6025Z" fill="#DBE1FC"/>
<path d="M67.0899 106.072L62.4014 110.607L65.7965 113.684L70.1617 109.635L67.0899 106.072Z" fill="#DBE1FC"/>
<path d="M56.5808 113.198L49.9521 113.036L50.2755 117.571L56.0958 117.732L56.5808 113.198Z" fill="#DBE1FC"/>
<path d="M44.1319 110.607L39.605 105.911L36.5332 109.312L40.5751 113.522L44.1319 110.607Z" fill="#DBE1FC"/>
<path d="M37.1798 100.081L37.3414 93.4414L32.6529 93.7653L32.4912 99.5953L37.1798 100.081Z" fill="#DBE1FC"/>
<path d="M39.6045 87.6112L44.4547 83.0768L40.8979 79.8379L36.6943 83.8865L39.6045 87.6112Z" fill="#DBE1FC"/>
<path d="M96.1902 74.3317C102.172 72.0645 105.244 65.2629 102.981 59.271C100.717 53.2791 93.9268 50.2022 87.9448 52.4694C81.9629 54.7366 78.8911 61.5382 81.1545 67.5301C83.4179 73.522 90.2083 76.5989 96.1902 74.3317ZM82.4479 67.0443C80.3461 61.7001 83.0946 55.8702 88.2682 53.7649C93.6034 51.6597 99.4237 54.4127 101.525 59.7568C103.627 65.101 100.879 70.9309 95.5435 73.0362C90.3699 74.9795 84.5497 72.3884 82.4479 67.0443ZM96.1902 74.3317C102.172 72.0645 105.244 65.2629 102.981 59.271C100.717 53.2791 93.9268 50.2022 87.9448 52.4694C81.9629 54.7366 78.8911 61.5382 81.1545 67.5301C83.4179 73.522 90.2083 76.5989 96.1902 74.3317ZM82.4479 67.0443C80.3461 61.7001 83.0946 55.8702 88.2682 53.7649C93.6034 51.6597 99.4237 54.4127 101.525 59.7568C103.627 65.101 100.879 70.9309 95.5435 73.0362C90.3699 74.9795 84.5497 72.3884 82.4479 67.0443ZM96.1902 74.3317C102.172 72.0645 105.244 65.2629 102.981 59.271C100.717 53.2791 93.9268 50.2022 87.9448 52.4694C81.9629 54.7366 78.8911 61.5382 81.1545 67.5301C83.4179 73.522 90.2083 76.5989 96.1902 74.3317ZM82.4479 67.0443C80.3461 61.7001 83.0946 55.8702 88.2682 53.7649C93.6034 51.6597 99.4237 54.4127 101.525 59.7568C103.627 65.101 100.879 70.9309 95.5435 73.0362C90.3699 74.9795 84.5497 72.3884 82.4479 67.0443ZM100.879 86.4775C113.651 81.6192 119.956 67.3682 115.106 54.5746C110.256 41.7811 96.0286 35.4653 83.2563 40.3236C70.484 45.1819 64.1787 59.4329 69.0289 72.2265C73.8791 84.858 88.1065 91.3358 100.879 86.4775ZM79.3761 68.1779C76.6276 61.2143 80.1845 53.441 87.1365 50.688C94.0885 48.0969 101.849 51.4977 104.597 58.4613C107.346 65.4248 103.789 73.1981 96.8369 75.9512C89.8849 78.7042 82.1245 75.1414 79.3761 68.1779ZM81.1545 67.5301C83.4179 73.522 90.2083 76.5989 96.1902 74.3317C102.172 72.0645 105.244 65.2629 102.981 59.271C100.717 53.2791 93.9268 50.2022 87.9448 52.4694C81.8012 54.7366 78.7294 61.5382 81.1545 67.5301ZM82.4479 67.0443C80.3461 61.7001 83.0946 55.8702 88.2682 53.7649C93.6034 51.6597 99.4237 54.4127 101.525 59.7568C103.627 65.101 100.879 70.9309 95.5435 73.0362C90.3699 74.9795 84.5497 72.3884 82.4479 67.0443ZM96.1902 74.3317C102.172 72.0645 105.244 65.2629 102.981 59.271C100.717 53.2791 93.9268 50.2022 87.9448 52.4694C81.9629 54.7366 78.8911 61.5382 81.1545 67.5301C83.4179 73.522 90.2083 76.5989 96.1902 74.3317ZM82.4479 67.0443C80.3461 61.7001 83.0946 55.8702 88.2682 53.7649C93.6034 51.6597 99.4237 54.4127 101.525 59.7568C103.627 65.101 100.879 70.9309 95.5435 73.0362C90.3699 74.9795 84.5497 72.3884 82.4479 67.0443ZM96.1902 74.3317C102.172 72.0645 105.244 65.2629 102.981 59.271C100.717 53.2791 93.9268 50.2022 87.9448 52.4694C81.9629 54.7366 78.8911 61.5382 81.1545 67.5301C83.4179 73.522 90.2083 76.5989 96.1902 74.3317ZM82.4479 67.0443C80.3461 61.7001 83.0946 55.8702 88.2682 53.7649C93.6034 51.6597 99.4237 54.4127 101.525 59.7568C103.627 65.101 100.879 70.9309 95.5435 73.0362C90.3699 74.9795 84.5497 72.3884 82.4479 67.0443Z" fill="#DFF7FE"/>
<path d="M79.2145 42.9152L87.9449 39.5144L85.0348 33.5225L77.2744 36.5994L79.2145 42.9152Z" fill="#DFF7FE"/>
<path d="M97.1611 39.5144L105.73 43.401L107.993 37.0852L100.395 33.5225L97.1611 39.5144Z" fill="#DFF7FE"/>
<path d="M112.358 49.7169L115.754 58.6238L121.736 55.7088L118.664 47.9355L112.358 49.7169Z" fill="#DFF7FE"/>
<path d="M115.753 67.8545L111.873 76.4375L118.178 78.7047L121.735 70.9314L115.753 67.8545Z" fill="#DFF7FE"/>
<path d="M105.568 82.915L96.6758 86.3158L99.5859 92.4697L107.346 89.3928L105.568 82.915Z" fill="#DFF7FE"/>
<path d="M87.4601 86.4784L78.8914 82.5918L76.6279 88.9076L84.3883 92.3084L87.4601 86.4784Z" fill="#DFF7FE"/>
<path d="M72.4245 76.1131L69.0294 67.3682L62.8857 70.2831L65.9576 78.0564L72.4245 76.1131Z" fill="#DFF7FE"/>
<path d="M68.8681 58.1383L72.7483 49.5553L66.443 47.2881L63.0479 54.8994L68.8681 58.1383Z" fill="#DFF7FE"/>
<path d="M199.663 41.4573L210.333 30.6071L202.25 23.6436L192.711 33.1982L199.663 41.4573Z" fill="#DFF7FE"/>
<path d="M52.0537 75.7891C52.8621 75.7891 53.6705 75.7891 54.4788 75.951" stroke="#49B3FF" stroke-miterlimit="10"/>
<path d="M59.3291 76.7609C70.9697 80.4856 71.9397 93.1172 90.3706 93.1172C113.49 93.1172 118.664 73.5221 118.664 47.1253C118.664 24.6152 132.406 6.47754 154.717 6.47754C180.262 6.47754 191.74 26.5585 191.74 42.9148C191.74 74.0079 192.711 108.502 229.411 108.502C287.775 108.502 276.458 40.3237 344.361 40.3237C393.349 40.3237 390.923 75.6273 422.935 75.6273C451.713 75.6273 458.18 52.3075 459.635 41.9431" stroke="#49B3FF" stroke-miterlimit="10" stroke-dasharray="2.99 2.99"/>
<path d="M459.958 39.5141C460.12 38.0566 460.12 37.085 460.12 37.085" stroke="#49B3FF" stroke-miterlimit="10"/>
<path d="M344.684 43.0773C346.738 43.0773 348.403 41.4097 348.403 39.3526C348.403 37.2955 346.738 35.6279 344.684 35.6279C342.631 35.6279 340.966 37.2955 340.966 39.3526C340.966 41.4097 342.631 43.0773 344.684 43.0773Z" fill="#49B3FF"/>
<path d="M460.12 40.8097C462.174 40.8097 463.838 39.1421 463.838 37.085C463.838 35.028 462.174 33.3604 460.12 33.3604C458.066 33.3604 456.401 35.028 456.401 37.085C456.401 39.1421 458.066 40.8097 460.12 40.8097Z" fill="#49B3FF"/>
<path d="M154.718 8.58318C156.771 8.58318 158.436 6.91558 158.436 4.85849C158.436 2.80139 156.771 1.13379 154.718 1.13379C152.664 1.13379 150.999 2.80139 150.999 4.85849C150.999 6.91558 152.664 8.58318 154.718 8.58318Z" fill="#49B3FF"/>
<path d="M69.6755 79.8381C71.7292 79.8381 73.3941 78.1705 73.3941 76.1134C73.3941 74.0563 71.7292 72.3887 69.6755 72.3887C67.6219 72.3887 65.957 74.0563 65.957 76.1134C65.957 78.1705 67.6219 79.8381 69.6755 79.8381Z" fill="#49B3FF"/>
<path d="M157.465 222.509L145.663 259.432H139.843L146.31 221.214L157.465 222.509Z" fill="#FF8A00"/>
<path d="M271.769 222.509L283.571 259.432H289.391L282.924 221.214L271.769 222.509Z" fill="#FF8A00"/>
<path d="M145.663 223.158L280.338 223.806C313.158 196.923 316.553 156.923 293.11 132.793C279.044 118.218 268.374 112.712 251.398 110.283C231.189 107.368 228.278 106.559 222.782 103.482C205.159 93.765 199.177 80.6476 184.303 61.3764C182.525 58.9472 180.584 56.68 178.483 54.2509C166.357 40.6476 142.106 40.1618 129.334 59.2711C96.9988 108.016 111.873 180.405 145.663 223.158Z" fill="#F9C521"/>
<path opacity="0.1" d="M139.034 102.186C139.034 174.898 207.099 187.044 247.033 169.716C281.631 154.655 269.667 114.979 240.404 109.149C240.404 109.149 228.602 106.882 222.943 103.805C205.321 94.0885 191.902 72.2262 177.028 52.793C154.878 40.8092 139.034 59.5946 139.034 102.186Z" fill="black"/>
<path d="M260.452 266.558C258.512 266.72 205.321 255.384 203.543 253.603C203.381 253.441 204.19 248.583 205.645 241.943V241.781C206.453 237.571 221.165 203.562 221.165 203.562L255.602 212.307L240.728 243.886C240.728 243.886 247.357 248.421 252.854 252.793C256.41 255.384 259.321 257.814 259.967 258.623C261.907 260.728 262.392 266.397 260.452 266.558Z" fill="white"/>
<path d="M260.452 266.558C255.763 265.911 251.237 264.939 246.71 264.129L233.129 261.214C224.075 259.271 215.021 257.328 205.968 254.736C205.483 254.575 204.836 254.413 204.351 254.251C204.028 254.089 203.866 254.089 203.543 253.765C203.381 253.603 203.543 253.441 203.543 253.441C203.543 253.279 203.543 253.279 203.543 253.279V252.793C203.704 251.66 203.866 250.526 204.189 249.392L205.483 242.591C205.968 240.323 206.938 238.056 207.746 235.951L210.333 229.473C213.89 220.89 217.447 212.307 221.165 203.724L221.327 203.4L221.65 203.562L256.087 212.469H256.41L256.248 212.793L241.213 244.372V244.21L253.338 253.117L256.895 255.87C258.027 256.842 259.159 257.651 260.29 258.785C261.26 259.919 261.745 261.376 261.907 262.834C262.069 263.643 262.069 264.291 261.907 265.101C261.422 265.587 261.26 266.396 260.452 266.558ZM260.452 266.558C261.26 266.396 261.584 265.587 261.584 264.777C261.745 263.967 261.584 263.319 261.584 262.51C261.422 261.052 260.937 259.595 259.967 258.461C258.835 257.489 257.703 256.518 256.572 255.546L253.015 252.793L240.728 244.048H240.566V243.886L255.278 212.145L255.44 212.469L220.842 203.724L221.327 203.562C217.608 212.145 214.051 220.728 210.495 229.311L207.908 235.789C207.099 237.894 206.129 240.162 205.644 242.267L204.189 249.068C204.028 250.202 203.704 251.336 203.543 252.469V252.955V253.117C203.543 253.117 203.543 253.279 203.543 253.117C203.704 253.279 204.028 253.279 204.189 253.441C204.674 253.603 205.321 253.765 205.806 253.927C214.698 256.518 223.752 258.461 232.806 260.566L246.386 263.481C251.237 264.777 255.763 265.911 260.452 266.558Z" fill="#363B4D"/>
<path d="M203.542 253.603C205.32 255.222 258.511 266.72 260.451 266.558C262.392 266.396 261.906 260.728 260.29 258.785C259.643 257.975 256.571 255.546 253.176 252.955C251.074 251.335 248.649 249.554 246.709 248.097C253.661 254.574 258.188 264.291 206.29 240.323C205.967 240.971 205.805 241.619 205.805 241.943V242.105C204.35 248.582 203.38 253.441 203.542 253.603Z" fill="#363B4D"/>
<path d="M243.476 243.724L206.452 233.522C206.452 233.522 235.231 169.554 234.26 166.477C233.614 164.372 188.183 165.182 174.603 153.522C160.537 141.376 170.722 116.923 170.722 116.923L208.878 115.789C208.878 115.789 208.393 123.724 209.848 125.02C210.818 125.83 263.2 129.23 273.547 148.178C283.086 165.344 243.476 243.724 243.476 243.724Z" fill="#363B4D"/>
<path opacity="0.26" d="M244.122 235.789C243.152 235.303 242.182 234.979 241.051 234.817C239.919 234.493 238.949 234.17 237.817 233.846C235.715 233.198 233.614 232.55 231.512 232.064C227.147 230.931 222.943 229.797 218.578 228.825C216.314 228.34 211.464 227.206 211.141 227.206C210.979 227.206 210.979 227.53 211.141 227.53C215.344 228.987 219.548 230.121 223.751 231.255C227.955 232.388 232.158 233.684 236.524 234.655C237.655 234.979 238.949 235.141 240.081 235.465C241.374 235.789 242.667 236.113 243.799 236.113C244.122 236.113 244.284 235.951 244.122 235.789Z" fill="#DFF7FE"/>
<path opacity="0.26" d="M172.824 124.048C172.986 122.753 172.986 121.457 173.148 120.161C173.148 120 173.471 120 173.309 120.161C172.986 125.344 172.501 130.688 173.633 135.708C174.603 140.566 177.028 144.615 180.746 147.854C188.507 154.817 199.177 156.599 209.039 158.056C214.698 158.866 220.356 159.514 226.177 160C228.925 160.162 231.835 160.323 234.584 160.485C237.332 160.647 240.081 160.485 242.991 160.647C243.799 160.647 244.608 161.133 244.608 162.105C244.608 162.753 244.284 163.238 243.961 163.886C243.638 164.534 243.476 165.182 243.153 165.991C242.021 168.583 241.051 171.012 239.919 173.603C237.656 178.785 235.554 184.129 233.129 189.311C228.602 199.676 223.913 209.878 219.063 220.081C218.416 221.376 217.931 222.672 217.285 223.805C217.285 223.967 217.123 223.805 217.123 223.805C221.812 213.441 226.338 203.076 230.865 192.712C233.129 187.53 235.392 182.348 237.494 177.328C238.626 174.736 239.757 172.145 240.727 169.554C241.212 168.259 241.859 166.963 242.344 165.668C242.668 165.02 242.829 164.372 243.153 163.724C243.314 163.238 244.284 161.943 243.638 161.457C243.153 161.133 242.344 161.295 241.859 161.295C241.051 161.295 240.404 161.295 239.596 161.295C238.141 161.295 236.847 161.295 235.392 161.295C232.482 161.295 229.734 161.133 226.823 160.971C221.327 160.647 215.668 160 210.171 159.352C200.309 158.056 189.638 156.437 181.555 150.121C177.998 147.368 175.249 143.643 173.794 139.271C172.501 134.251 172.501 129.068 172.824 124.048Z" fill="#DFF7FE"/>
<path d="M338.702 218.786C337.408 220.243 289.067 245.344 286.642 245.182C286.319 245.182 284.056 240.81 280.822 234.818V234.656C278.882 230.931 260.774 199.19 260.774 199.19L290.846 182.996L309.438 213.927C309.438 213.927 317.36 213.279 324.474 212.956C328.839 212.794 332.72 212.632 333.69 212.956C336.115 213.441 340.157 217.328 338.702 218.786Z" fill="white"/>
<path d="M338.702 218.785C334.822 221.214 330.618 223.319 326.576 225.587L314.289 232.064C306.043 236.275 297.798 240.647 289.391 244.372C288.906 244.534 288.259 244.858 287.774 245.02C287.451 245.182 287.289 245.182 286.966 245.344H286.643L286.481 245.182L286.319 245.02C286.158 244.858 286.158 244.696 285.996 244.696C285.349 243.724 284.864 242.753 284.217 241.619L280.984 235.465L274.032 223.319L260.29 199.19L260.128 198.866L260.451 198.704L290.523 182.672L290.684 182.51L290.846 182.672L309.277 213.603H309.115L324.151 212.631L328.678 212.469C330.133 212.469 331.588 212.469 333.205 212.469C334.66 212.631 335.953 213.603 337.085 214.575C337.57 215.06 338.055 215.708 338.54 216.356C338.863 217.328 339.348 218.137 338.702 218.785ZM338.702 218.785C339.187 218.137 338.863 217.328 338.54 216.68C338.217 216.032 337.732 215.546 337.085 214.898C335.953 213.927 334.66 212.955 333.205 212.793C331.75 212.631 330.295 212.793 328.84 212.793L324.474 212.955L309.439 213.927L290.684 183.158L291.008 183.319L261.098 199.514L261.26 199.028L274.84 223.319L281.631 235.465L284.864 241.619C285.349 242.591 285.996 243.724 286.643 244.696C286.643 244.858 286.804 244.858 286.804 245.02H286.966C287.128 245.02 287.451 244.858 287.774 244.858C288.259 244.696 288.906 244.372 289.391 244.21C297.798 240.485 306.043 236.275 314.289 232.064L326.576 225.749C330.618 223.319 334.822 221.214 338.702 218.785Z" fill="#363B4D"/>
<path d="M280.661 234.169C280.823 234.331 280.823 234.493 280.984 234.655V234.817C284.056 240.809 286.481 245.181 286.805 245.181C289.23 245.343 337.409 220.242 338.864 218.784C340.157 217.327 336.277 213.44 333.69 212.954C332.72 212.793 328.84 212.793 324.475 212.954C321.403 213.116 318.331 213.278 315.583 213.44C325.283 213.44 337.571 217.651 280.661 234.169Z" fill="#363B4D"/>
<path d="M309.115 208.907L272.9 228.016C272.9 228.016 242.99 170.526 239.757 166.801C235.392 161.943 181.231 170.202 167.973 154.332C154.231 137.975 165.225 116.923 165.225 116.923L206.614 115.951C206.614 115.951 206.775 120.486 204.673 127.287C204.673 127.287 252.044 123.401 265.786 136.032C276.134 145.911 309.115 208.907 309.115 208.907Z" fill="#363B4D"/>
<path d="M197.075 131.822C199.177 130.364 201.279 128.907 203.542 127.611C204.674 126.964 207.099 125.83 208.554 125.506C209.686 125.182 210.333 125.02 209.201 125.668C208.554 125.992 207.261 126.64 206.129 127.125C206.291 127.125 206.614 127.125 206.776 127.125C207.584 127.125 208.392 126.964 209.201 126.964C210.818 126.964 212.434 126.802 214.051 126.802C217.285 126.64 220.518 126.964 223.751 126.964C223.913 126.964 223.913 127.125 223.751 127.125C220.518 127.125 217.285 127.287 214.051 127.449C212.434 127.449 210.818 127.611 209.201 127.611C208.392 127.611 207.584 127.611 206.937 127.773C206.291 127.773 205.644 127.935 204.997 127.773C204.674 127.935 204.351 128.097 204.189 128.259C201.764 129.231 199.5 130.526 197.075 131.822C197.237 131.822 197.075 131.822 197.075 131.822Z" fill="#363B4D"/>
<path d="M207.584 114.331C207.261 116.275 206.937 118.218 206.452 120.161C206.291 121.133 206.129 121.943 205.805 122.914C205.644 123.724 205.159 124.534 204.35 124.696C203.38 124.858 203.057 124.048 203.057 123.4C203.057 122.429 203.219 121.619 203.38 120.647C203.542 119.676 203.704 118.542 203.865 117.57C203.865 117.084 204.027 116.599 204.027 116.113C204.027 115.951 204.027 114.979 204.189 114.655V114.493C204.189 114.493 204.189 114.493 204.027 114.493C203.865 114.655 203.865 114.817 203.865 114.979C203.704 115.465 203.542 115.951 203.542 116.437C203.38 117.408 203.057 118.38 202.895 119.352C202.734 120.323 202.572 121.295 202.41 122.267C202.249 122.914 202.087 123.724 202.41 124.372C202.734 125.182 203.38 125.506 204.027 125.506C204.027 125.506 204.027 125.667 203.865 125.667C203.865 125.829 203.704 125.991 203.704 126.315C203.704 126.477 203.542 126.801 203.542 126.963C203.542 127.125 203.542 127.125 203.542 127.287C203.542 127.449 203.542 127.449 203.542 127.611C203.542 127.773 203.704 127.935 203.865 127.773C203.865 127.611 204.027 127.611 204.027 127.449C204.027 127.287 204.189 127.287 204.189 127.125C204.189 126.963 204.35 126.801 204.35 126.477C204.35 126.315 204.512 126.153 204.512 125.829C204.512 125.667 204.512 125.667 204.512 125.506C204.835 125.506 205.32 125.344 205.644 125.02C206.129 124.534 206.452 123.886 206.776 123.238C207.099 122.429 207.261 121.619 207.422 120.647C207.907 118.542 208.231 116.437 208.231 114.331C207.907 114.169 207.584 114.169 207.584 114.331Z" fill="#363B4D"/>
<path d="M187.698 120.486C187.536 121.457 187.536 122.429 187.374 123.401C187.213 124.372 187.051 125.344 186.728 126.154C186.404 126.963 186.243 127.935 185.758 128.745C185.273 129.555 184.626 130.202 183.979 130.85C182.686 131.984 181.231 132.955 179.614 133.603C178.806 133.927 177.997 134.251 177.189 134.413C176.704 134.575 176.381 134.575 175.896 134.737C175.572 134.737 175.087 134.899 174.764 135.061C174.602 135.223 174.602 135.384 174.764 135.384C175.411 135.708 176.219 135.384 176.704 135.384C177.351 135.223 178.159 135.061 178.806 134.899C180.261 134.413 181.554 133.765 182.848 132.955C183.979 132.146 185.273 131.174 186.081 130.04C186.889 128.745 187.374 127.449 187.698 125.992C188.021 124.21 188.183 122.267 188.021 120.486C187.859 120.324 187.698 120.324 187.698 120.486Z" fill="#363B4D"/>
<path d="M301.517 202.429C300.547 202.753 299.577 203.239 298.607 203.724C297.637 204.21 296.667 204.696 295.535 205.182C293.595 206.154 291.655 207.125 289.715 208.259C285.834 210.364 281.954 212.631 278.074 214.899C276.134 216.032 271.769 218.623 271.607 218.785C271.445 218.947 271.607 219.109 271.769 219.109C275.811 217.166 279.691 215.222 283.571 213.117C287.451 211.012 291.331 209.069 295.211 206.801C296.182 206.154 297.313 205.506 298.283 204.858C299.415 204.21 300.547 203.563 301.517 202.753C301.678 202.591 301.678 202.267 301.517 202.429Z" fill="#363B4D"/>
<path opacity="0.26" d="M165.387 126.639C165.387 126.477 165.71 126.477 165.71 126.639C165.872 135.708 167.488 145.748 174.602 152.064C182.363 159.028 193.356 159.514 203.219 159.19C208.877 159.028 214.536 158.704 220.194 158.704C225.853 158.704 231.673 158.866 237.332 159.514C239.595 159.675 241.535 160.485 243.152 162.105C244.769 163.724 245.901 165.667 247.194 167.611C250.104 172.307 253.014 177.003 255.763 181.7C261.26 191.254 266.433 200.809 271.122 210.688C271.769 211.983 272.254 213.117 272.9 214.412C272.9 214.574 272.739 214.574 272.739 214.412C267.888 204.534 262.715 194.655 257.218 185.101C254.469 180.242 251.559 175.546 248.649 170.85C247.356 168.582 245.901 166.315 244.446 164.372C243.152 162.59 241.374 160.809 239.11 160.161C237.817 159.837 236.362 159.675 234.907 159.675C233.452 159.514 231.997 159.514 230.542 159.352C227.793 159.19 224.883 159.19 222.134 159.028C216.476 159.028 210.656 159.19 204.997 159.352C195.135 159.837 184.303 159.675 175.896 153.522C172.339 150.931 169.59 147.206 167.974 142.995C166.357 138.785 165.71 134.088 165.387 129.554C165.387 128.906 165.387 127.773 165.387 126.639Z" fill="#DFF7FE"/>
<path opacity="0.26" d="M225.692 164.696C227.793 164.696 229.733 164.696 231.835 164.696C233.452 164.696 235.23 164.696 236.847 165.02C238.464 165.344 239.596 165.506 240.889 167.287C242.506 169.393 251.398 185.587 255.116 192.874C256.086 194.818 257.218 196.923 258.188 198.866C259.158 200.972 260.128 203.077 261.26 205.182C261.26 205.182 261.26 205.344 261.098 205.182C260.128 203.401 259.158 201.781 258.188 200C257.218 198.219 256.248 196.599 255.44 194.818C253.661 191.255 251.721 187.854 249.943 184.291C248.164 180.891 245.901 177.49 243.961 173.927C242.344 171.012 240.242 166.964 238.787 166.478C237.009 165.83 234.26 165.182 232.482 165.02C230.057 165.182 227.955 165.02 225.692 164.696C225.53 164.858 225.53 164.696 225.692 164.696Z" fill="#DFF7FE"/>
<path d="M200.632 70.4446C215.021 75.7887 222.943 79.0276 222.943 79.0276C222.943 79.0276 218.093 68.0154 216.8 64.7766C215.183 63.481 214.698 62.1855 214.698 62.1855C213.89 62.5094 213.081 62.8333 213.081 62.8333C211.465 60.0802 209.848 56.3555 209.201 54.898C207.908 51.8211 212.111 46.6389 212.111 46.6389C207.423 47.2867 203.381 53.1167 201.441 51.4972C199.339 49.7158 204.351 44.0478 207.423 42.9142C220.68 38.2179 225.854 43.2381 229.41 46.1531C232.321 48.5822 234.584 51.4972 236.039 53.4405H236.201C236.686 54.0883 237.009 54.898 237.494 55.5458C237.494 55.7078 237.656 55.7078 237.656 55.8697C237.817 56.0316 237.817 56.1936 237.817 56.1936C252.853 81.4567 255.763 107.368 249.135 108.501C228.764 111.902 198.207 80.4851 193.195 72.7118C190.123 68.0154 193.842 68.0154 200.632 70.4446Z" fill="white"/>
<path d="M200.632 70.4444C208.069 73.1974 215.506 75.9505 222.943 78.8654L222.781 79.0274C220.679 74.331 218.578 69.4727 216.476 64.7764C215.668 64.1286 214.859 63.1569 214.374 62.1853H214.536C214.051 62.3472 213.566 62.6711 212.919 62.833H212.757V62.6711C211.302 60.08 210.009 57.327 208.877 54.5739C208.392 53.1164 208.877 51.497 209.524 50.2015C210.171 48.744 210.979 47.6104 211.949 46.3148L212.111 46.6387C209.847 46.9626 207.746 48.582 205.967 49.8776C204.997 50.5254 204.027 51.3351 202.895 51.659C202.249 51.8209 201.44 51.659 201.117 51.0112C200.794 50.3634 200.794 49.7156 200.955 49.0679C201.279 47.9343 202.087 46.8007 202.895 45.9909C203.704 45.0193 204.512 44.2096 205.482 43.5618C205.967 43.2379 206.452 42.914 207.099 42.5901C207.746 42.2662 208.231 42.2662 208.877 41.9424C210.009 41.6185 211.141 41.2946 212.272 40.9707C214.698 40.4849 217.123 40.161 219.548 40.4849C221.973 40.8088 224.398 41.6185 226.338 42.914C230.38 45.6671 233.775 49.0679 236.524 52.9545L236.2 52.7926H236.362C236.362 52.7926 236.524 52.7926 236.524 52.9545C236.685 53.1164 236.685 53.1164 236.685 53.1164L236.847 53.2784L237.009 53.6023L237.494 54.25L238.302 55.7075L238.464 56.0314L238.14 56.1934L238.302 55.7075C244.122 65.5861 248.649 76.2743 251.398 87.4484C252.044 90.2015 252.529 93.1164 252.853 96.0314C253.014 98.9464 253.176 101.861 252.529 104.614C252.206 105.91 251.559 107.529 250.104 108.177C248.649 108.501 247.194 108.663 245.739 108.663C242.829 108.663 239.919 108.015 237.332 107.044C231.835 105.262 226.823 102.347 221.973 99.1084C217.284 95.8695 212.757 92.3067 208.392 88.4201C204.189 84.5334 200.147 80.4849 196.428 76.1124C195.458 74.9788 194.65 73.8452 193.842 72.7116C193.518 72.0638 193.033 71.578 192.71 70.9302C192.386 70.2824 192.063 69.4727 192.548 68.8249C193.033 68.3391 193.842 68.3391 194.65 68.3391C195.297 68.3391 196.105 68.5011 196.752 68.663C197.883 69.4727 199.177 69.9586 200.632 70.4444ZM200.632 70.4444C199.338 69.9586 197.883 69.4727 196.59 69.1488C195.943 68.9869 195.135 68.8249 194.488 68.8249C193.842 68.8249 193.033 68.8249 192.548 69.3108C192.063 69.9585 192.386 70.7683 192.71 71.2541C193.033 71.9019 193.356 72.5496 193.842 73.0355C194.65 74.1691 195.62 75.3027 196.428 76.4363C200.147 80.8088 204.189 84.8573 208.554 88.582C212.757 92.3067 217.284 95.8695 222.135 99.1084C226.823 102.185 231.997 105.1 237.332 106.882C240.08 107.691 242.829 108.339 245.739 108.339C247.194 108.339 248.649 108.339 249.943 108.015C251.236 107.529 251.721 106.072 252.044 104.776C252.691 102.023 252.529 99.1083 252.368 96.3553C252.044 93.4403 251.559 90.6873 250.913 87.9343C248.326 76.7602 243.637 66.2339 237.817 56.3553L237.655 56.0314L237.979 55.8695L237.817 56.3553L237.009 54.8978L236.524 54.25L236.362 53.9262L236.2 53.7642H236.039L235.877 53.6023C233.128 49.7156 229.733 46.3148 225.853 43.5618C223.913 42.2662 221.65 41.4565 219.386 41.1326C217.123 40.8088 214.698 41.1326 212.434 41.6185C211.302 41.9424 210.171 42.1043 209.039 42.5901C208.554 42.7521 207.907 42.914 207.422 43.076C206.937 43.2379 206.452 43.5618 205.967 43.8857C204.189 45.3432 202.41 47.1245 201.602 49.2298C201.44 49.7156 201.44 50.3634 201.602 50.8492C201.925 51.3351 202.41 51.497 202.895 51.3351C204.027 51.0112 204.997 50.2015 205.967 49.5537C207.907 48.2581 209.847 46.6387 212.272 46.3148H212.757L212.434 46.6387C211.464 47.7723 210.656 49.0679 210.171 50.3634C209.524 51.659 209.039 53.1164 209.524 54.5739C210.656 57.327 211.787 60.08 213.404 62.6711H213.242C213.727 62.5092 214.213 62.3472 214.698 62.0233H214.859V62.1853C215.344 63.1569 216.153 63.9667 216.961 64.6144C218.901 69.4727 221.003 74.1691 223.105 78.8654V79.0274H222.943C215.506 76.1124 208.069 73.1974 200.632 70.4444Z" fill="#363B4D"/>
<path d="M213.404 45.3438C208.715 47.1251 200.147 51.9834 201.602 55.5462C202.572 58.1373 206.129 56.5178 206.129 56.5178C206.129 56.5178 203.057 59.2709 204.512 61.3761C205.805 63.3195 208.392 62.0239 208.392 62.0239C208.392 62.0239 206.775 63.9672 208.392 65.5867C210.332 67.53 214.536 62.0239 218.092 62.3478" fill="white"/>
<path d="M213.404 45.3438C211.787 45.9915 210.17 46.9632 208.554 47.7729C206.937 48.7446 205.482 49.7162 204.188 50.8498C203.542 51.4976 202.895 52.1454 202.41 52.7931C201.925 53.4409 201.602 54.2506 201.763 55.0603C201.925 55.8701 202.572 56.3559 203.38 56.5178C204.188 56.6798 204.997 56.3559 205.805 56.194L207.745 55.3842L206.128 56.8417C205.643 57.3276 204.997 57.9753 204.673 58.6231C204.35 59.2709 204.027 60.0806 204.35 60.7284C204.512 61.3761 205.158 61.862 205.805 62.0239C206.452 62.1859 207.26 62.0239 207.907 61.7L209.2 61.0523L208.392 62.1859C207.745 62.9956 207.422 64.2911 208.23 65.2628C208.877 66.2344 210.17 65.7486 211.14 65.1008C212.272 64.4531 213.242 63.8053 214.374 63.3195C215.506 62.8336 216.637 62.3478 217.931 62.3478C216.637 62.3478 215.506 62.8336 214.535 63.4814C213.565 64.1292 212.434 64.7769 211.464 65.4247C210.979 65.7486 210.332 66.0725 209.685 66.2344C209.362 66.2344 209.039 66.3964 208.715 66.2344C208.392 66.0725 208.068 65.9105 207.907 65.5867C207.422 65.1008 207.26 64.2911 207.26 63.6433C207.26 62.9956 207.583 62.3478 208.068 61.7L208.554 62.1859C207.745 62.5097 206.937 62.8336 205.967 62.6717C204.997 62.5097 204.188 61.7 203.865 60.8903C203.542 59.9186 203.865 58.947 204.35 58.1373C204.835 57.3276 205.32 56.6798 205.967 56.032L206.452 56.6798C205.482 57.0037 204.673 57.3276 203.542 57.1656C202.572 57.0037 201.602 56.1939 201.44 55.2223C201.116 54.0887 201.602 53.117 202.248 52.4693C202.895 51.6595 203.542 51.0118 204.188 50.5259C206.775 48.0968 210.009 46.6393 213.404 45.3438Z" fill="#363B4D"/>
<path d="M216.314 50.2021C214.051 50.688 209.039 52.9552 206.129 56.5179V56.6799C210.171 53.441 214.536 51.1738 216.314 50.2021C216.314 50.3641 216.314 50.2021 216.314 50.2021Z" fill="#363B4D"/>
<path d="M213.89 45.1816C211.626 45.6675 206.614 47.9347 203.704 51.4974V51.6594C207.584 48.2586 211.95 45.9914 213.89 45.1816Z" fill="#363B4D"/>
<path d="M218.093 55.0605C216.153 55.7083 210.979 58.2994 208.23 62.0241C208.23 62.186 208.23 62.1861 208.23 62.1861C212.272 58.4614 216.153 56.0322 218.093 55.0605Z" fill="#363B4D"/>
<path d="M214.859 63.1573C215.183 62.8335 217.608 61.376 220.518 61.376C220.518 61.376 220.68 61.5379 220.518 61.5379C218.901 62.0237 217.608 62.3476 217.608 62.3476C219.71 64.7768 223.428 65.5865 225.045 65.9104C225.207 65.9104 225.045 66.0723 225.045 66.0723C222.135 66.2343 218.901 64.9387 217.446 62.5096C216.961 62.5096 215.183 63.3193 214.859 63.1573C214.859 63.3193 214.859 63.1573 214.859 63.1573Z" fill="#363B4D"/>
<path d="M244.284 65.4248L217.285 68.6637L220.68 76.275C220.68 76.275 206.452 70.445 198.854 67.5301C191.255 64.777 188.83 68.1778 193.68 74.8175C198.53 81.2952 214.213 96.5179 226.177 103.32C237.171 109.635 244.931 110.445 249.134 109.149C253.176 107.854 257.865 95.3843 244.284 65.4248Z" fill="#5EE67B"/>
<path d="M220.679 76.2748C223.266 82.5906 226.176 88.9064 229.086 95.2221C229.895 97.0035 230.703 98.623 231.511 100.404C231.511 100.404 231.511 100.566 231.35 100.404C229.571 97.4894 227.955 94.4124 226.5 91.3355C225.044 88.2586 223.589 85.1817 222.458 81.9428C221.811 79.9995 221.164 78.0562 220.679 76.2748C220.518 76.1128 220.679 76.1128 220.679 76.2748Z" fill="#363B4D"/>
<path d="M233.613 72.8738C235.553 72.55 243.637 71.7402 245.577 71.7402V71.9022C243.637 72.388 235.553 73.5216 233.613 73.6836C229.571 74.1694 225.529 74.6552 221.487 74.8172C221.326 74.8172 221.326 74.6552 221.487 74.6552C225.529 73.8455 229.571 73.5216 233.613 72.8738Z" fill="#363B4D"/>
<path opacity="0.1" d="M193.68 74.8175C198.53 81.2952 214.213 96.5179 226.176 103.319C228.278 104.453 230.218 105.587 232.158 106.396L195.943 66.8822C190.608 65.7486 189.476 69.1494 193.68 74.8175Z" fill="#363B4D"/>
<path d="M212.272 124.048L160.698 123.4C160.698 123.4 174.764 80.4853 185.758 69.4732C190.77 64.4529 195.458 65.4246 199.338 68.8254C200.308 69.6351 212.111 86.1533 212.919 91.6594C213.727 96.5177 209.686 101.376 209.686 101.376L212.272 124.048Z" fill="#5EE67B"/>
<path d="M194.973 101.052C197.075 101.052 199.176 100.89 201.44 101.214C202.572 101.376 203.542 101.538 204.512 101.7C204.997 101.862 205.482 101.862 206.128 102.024C206.613 102.024 207.26 102.186 207.745 102.024C207.26 102.186 206.775 102.186 206.128 102.186C205.643 102.186 205.158 102.186 204.673 102.186C203.542 102.024 202.572 101.862 201.44 101.862C199.338 101.7 197.075 101.376 194.973 101.214C194.811 101.214 194.811 101.052 194.973 101.052Z" fill="#363B4D"/>
<path d="M189.961 103.643C191.739 103.158 193.356 102.834 195.135 102.672C195.943 102.51 196.913 102.51 197.721 102.51C198.206 102.51 198.53 102.51 199.015 102.51C199.5 102.51 199.985 102.51 200.47 102.51C199.985 102.51 199.661 102.672 199.176 102.672C198.691 102.672 198.368 102.834 197.883 102.834C197.075 102.996 196.105 102.996 195.296 103.158C193.518 103.319 191.739 103.481 189.961 103.643C189.961 103.805 189.961 103.643 189.961 103.643Z" fill="#363B4D"/>
<path d="M239.433 127.611C237.17 125.668 231.35 123.401 227.793 122.429C222.781 120.972 215.506 119.19 212.757 118.542C207.099 116.113 183.332 105.425 183.494 103.482C183.656 102.348 186.728 92.9554 189.799 80.6477C193.195 66.3967 188.991 65.2631 184.464 70.6072C174.764 81.7813 156.009 108.664 161.183 115.304C168.782 125.02 190.446 136.842 199.662 140.729C203.703 143.158 209.524 145.587 219.224 142.834C219.224 142.834 227.631 155.951 231.673 154.008C233.29 153.198 232.643 150.769 231.511 148.502C233.775 151.579 236.523 154.656 238.463 153.846C241.697 152.389 238.787 147.854 238.463 147.53C240.889 150.769 243.475 153.522 245.415 152.389C248.164 150.607 244.93 144.777 242.344 140.729C245.254 144.453 249.619 149.474 251.559 147.692C255.116 144.615 242.829 130.526 239.433 127.611Z" fill="white" stroke="#363B4D" stroke-width="0.5" stroke-miterlimit="10"/>
<path d="M236.362 132.308C237.656 133.765 238.949 135.223 240.081 136.842C241.213 138.461 242.344 140.081 243.314 141.7C245.739 145.749 246.548 148.664 246.548 148.502C244.769 144.291 240.889 138.623 239.757 137.166C238.464 135.546 237.494 133.927 236.362 132.308Z" fill="#363B4D"/>
<path d="M230.704 136.356C232.159 138.299 233.776 140.243 235.231 142.186C236.686 144.129 238.626 147.044 239.919 149.15C240.081 149.312 239.757 149.474 239.757 149.312C238.302 147.206 236.362 144.453 234.907 142.348C233.452 140.405 232.159 138.299 230.704 136.356C230.542 136.356 230.704 136.194 230.704 136.356Z" fill="#363B4D"/>
<path d="M226.015 140.08C228.44 142.995 230.542 146.072 232.32 149.473C232.482 149.635 231.835 149.473 231.835 149.311C229.895 146.234 228.601 143.805 226.015 140.08C226.015 140.242 226.015 140.08 226.015 140.08Z" fill="#363B4D"/>
<path d="M207.584 115.142L192.71 142.834C192.71 142.834 163.77 123.239 160.052 114.494C156.656 106.721 177.997 77.2469 182.848 71.5789C187.698 65.9109 192.225 65.2631 191.093 75.1417C189.8 85.1822 184.464 102.996 184.464 103.32C184.464 103.644 207.584 115.142 207.584 115.142Z" fill="#5EE67B"/>
<path d="M194.811 125.344C195.943 123.239 200.308 114.979 201.601 113.036H201.763C200.955 115.303 196.59 123.724 195.458 125.83C193.194 130.04 191.093 134.251 188.668 138.299C188.668 138.461 188.506 138.299 188.506 138.299C190.284 133.927 192.548 129.716 194.811 125.344Z" fill="#363B4D"/>
<path d="M187.051 92.4688C188.021 88.7441 188.991 84.8575 189.961 81.1328H190.123C189.8 83.2381 189.315 85.3433 188.991 87.6105C189.476 86.4769 189.8 85.5053 190.285 84.3717C190.285 84.2097 190.446 84.3717 190.446 84.3717C190.123 85.8292 189.476 87.2867 188.83 88.5822C188.506 89.8778 188.183 91.1733 187.86 92.4688C187.375 94.4122 185.111 102.509 184.788 103.481C187.86 104.777 190.608 106.396 193.68 107.853C195.135 108.663 202.087 111.74 203.542 112.55C204.997 113.36 206.776 114.007 208.069 114.979C208.069 114.979 207.584 115.951 207.422 116.275C207.422 116.436 207.261 116.275 207.261 116.275C207.261 116.275 207.584 115.465 207.746 115.465C206.937 115.141 204.027 113.683 203.219 113.36C201.764 112.55 200.309 111.902 198.692 111.092C195.62 109.635 183.979 104.129 183.979 103.967C183.979 102.833 186.566 94.4122 187.051 92.4688Z" fill="#363B4D"/>
<path d="M161.992 117.57C162.639 118.704 163.609 119.676 164.417 120.647C164.902 121.133 165.387 121.619 165.872 122.105C166.357 122.591 166.842 122.914 167.489 123.4C166.681 122.429 165.711 121.457 164.902 120.485C163.771 119.514 162.962 118.542 161.992 117.57Z" fill="#363B4D"/>
<path d="M190.123 68.1774C190.285 69.1491 194.327 75.141 198.53 75.141C199.824 75.141 200.147 67.6916 200.147 67.6916L200.309 67.2058L202.41 59.5944L193.68 53.4406L192.387 52.6309C192.387 52.6309 191.902 54.7361 191.417 57.3272C191.417 57.4892 191.417 57.6511 191.417 57.6511C191.417 57.813 191.417 57.975 191.255 58.1369C191.255 58.4608 191.093 58.9466 191.093 59.2705C191.093 59.5944 190.931 59.9183 190.931 60.2422C190.931 60.5661 190.77 60.89 190.77 61.2139C190.285 64.6147 189.961 67.8535 190.123 68.1774Z" fill="white"/>
<path d="M190.124 68.1771C190.771 69.6346 191.902 70.9301 192.872 72.0637C194.004 73.1973 195.298 74.169 196.753 74.6548C197.076 74.8168 197.561 74.8168 197.884 74.9787H198.531C198.693 74.9787 198.693 74.8168 198.854 74.6548C199.178 74.007 199.339 73.1973 199.501 72.3876C199.663 70.7682 199.824 69.1487 199.824 67.6913L201.926 59.5941L202.088 60.0799L197.076 56.5172C195.459 55.3836 193.843 54.088 192.064 52.9544L192.387 52.7925L191.579 56.6791C191.256 57.9747 190.932 59.2702 190.771 60.5658C190.447 61.8613 190.447 63.1568 190.286 64.4524C190.286 65.586 190.124 66.8815 190.124 68.1771ZM190.124 68.1771C190.124 66.8815 190.286 65.586 190.286 64.2904C190.447 62.9949 190.609 61.6994 190.771 60.4038C190.932 59.1083 191.256 57.8127 191.417 56.5172L192.064 52.6305V52.3066L192.387 52.4686C194.166 53.4402 195.783 54.7358 197.399 55.8694L202.411 59.2702L202.573 59.4321V59.756C201.765 62.5091 201.118 65.1002 200.31 67.8532C200.148 69.4726 199.986 71.0921 199.663 72.7115C199.501 73.5212 199.339 74.3309 198.854 74.9787C198.693 75.1406 198.531 75.3026 198.208 75.3026H197.561C197.238 75.3026 196.753 75.1406 196.429 74.9787C194.974 74.3309 193.681 73.3593 192.549 72.2257C191.741 70.9301 190.609 69.7965 190.124 68.1771Z" fill="#363B4D"/>
<path d="M200.309 67.8536L197.884 74.0075L190.123 66.0723L186.566 67.8536C186.566 67.8536 195.944 81.133 195.944 80.6472L198.207 75.303L201.926 78.7038L201.44 68.6634L200.309 67.8536Z" fill="white"/>
<path d="M200.309 67.854L198.046 74.0078L197.884 74.3317L197.722 74.1697L189.8 66.3965H190.124L186.567 68.1778L186.728 67.692L191.417 74.1697L193.68 77.4086L194.812 79.028L195.459 79.8378L195.782 80.1616L195.944 80.3236C195.944 80.3236 195.944 80.3236 195.782 80.3236C195.62 80.3236 195.62 80.3236 195.62 80.3236C195.459 80.3236 195.459 80.4855 195.459 80.6475V80.4855L197.722 75.1414L197.884 74.6556L198.207 74.9795L201.926 78.5422L201.441 78.7041C201.279 75.3033 201.279 71.9025 201.279 68.6637L200.309 67.854ZM200.309 67.854L201.602 68.5017C201.764 71.9025 202.087 75.3033 202.249 78.5422V79.19L201.764 78.7041L197.884 75.3033L198.369 75.1414L196.106 80.4855V80.3236C196.106 80.4855 195.944 80.6475 195.944 80.6475C195.782 80.6475 195.782 80.6475 195.62 80.6475C195.459 80.6475 195.459 80.6475 195.459 80.6475C195.459 80.6475 195.459 80.6475 195.297 80.6475L195.135 80.4855L194.974 80.3236L194.65 79.9997L194.004 79.19L192.872 77.5705L190.447 74.3317L185.92 67.854L185.597 67.5301L185.92 67.3681L189.477 65.5867L189.639 65.4248L189.8 65.5867L197.561 73.6839H197.237L200.309 67.854Z" fill="#363B4D"/>
<path d="M201.926 74.1692C201.764 72.7117 201.926 70.1206 201.602 68.6631H201.441C201.279 70.1206 201.602 76.9222 201.764 78.2177C201.602 78.0558 198.207 75.1408 198.207 75.3028C197.722 76.1125 196.105 79.9991 195.944 80.4849C194.65 78.5416 189.315 71.2542 187.86 69.4728H187.698C188.83 71.4161 195.782 81.1327 195.782 81.1327C195.782 81.1327 197.884 76.4364 198.045 75.4647C198.692 76.1125 202.087 79.3513 202.087 79.1894C202.249 77.57 202.087 75.6266 201.926 74.1692Z" fill="#363B4D"/>
<path d="M190.285 52.6309C184.95 54.0883 180.746 56.5175 178.968 61.0519C175.249 70.9305 188.668 78.8657 192.387 90.8495C197.075 105.1 205.159 111.254 210.979 105.748C217.446 99.5944 214.536 87.6106 198.207 76.9224C188.022 70.2827 185.92 64.7766 187.052 61.5377C187.86 59.1086 190.932 56.5175 190.932 56.5175L190.285 52.6309Z" fill="#FF8A00"/>
<path d="M192.871 73.0361C194.488 74.1697 196.105 75.1414 197.721 76.275C199.338 77.2467 200.955 78.3803 202.572 79.3519C204.188 80.4855 205.805 81.6191 207.26 82.7527C208.715 84.0483 210.17 85.3438 211.302 86.8013C212.434 88.2588 213.565 89.8782 214.05 91.6596C214.535 93.441 214.859 95.3843 214.697 97.3276C214.535 99.271 214.05 101.214 213.08 102.834C212.595 103.643 211.949 104.453 211.302 105.101C210.979 105.425 210.655 105.749 210.17 106.073C209.847 106.396 209.362 106.72 208.877 106.882C209.847 106.558 210.655 105.911 211.302 105.263C212.11 104.615 212.757 103.805 213.242 102.996C213.727 102.186 214.212 101.214 214.535 100.243C214.859 99.271 215.02 98.2993 215.182 97.3276C215.344 96.356 215.344 95.2224 215.182 94.2507V93.441L215.02 92.6313C215.02 92.1455 214.859 91.6596 214.697 91.1738C214.05 89.2305 213.08 87.4491 211.787 85.9916C209.2 82.9147 206.128 80.6475 202.733 78.5422C201.116 77.5705 199.338 76.5989 197.721 75.6272C196.105 74.9795 194.488 74.1697 192.871 73.0361Z" fill="#FF8A00"/>
<path d="M188.506 54.5742C187.051 54.7362 185.758 54.8981 184.464 55.222C183.171 55.7078 181.878 56.3556 180.908 57.3273C179.938 58.2989 179.129 59.4325 178.644 60.7281C178.483 61.3758 178.159 62.0236 177.997 62.6714C177.836 63.3192 177.836 63.9669 177.674 64.6147C177.674 65.9103 177.836 67.2058 178.321 68.5013C178.806 69.7969 179.453 70.9305 180.099 72.0641C181.554 74.3313 183.333 76.4366 184.949 78.5418C186.566 80.6471 188.183 82.9143 189.476 85.3435C190.77 87.7726 191.74 90.3637 192.548 92.9548C193.357 95.5459 194.165 98.137 195.458 100.566C196.105 101.862 196.752 102.995 197.56 103.967L198.207 104.777C198.53 104.939 198.692 105.262 199.015 105.424L199.339 105.748L199.824 106.072L200.632 106.72C198.207 105.586 196.267 103.319 194.973 100.89C193.68 98.4609 192.71 95.8698 191.74 93.2787C190.77 90.6876 189.8 88.2584 188.506 85.8293C187.213 83.4001 185.596 81.2949 183.979 79.1896C182.363 77.0843 180.584 74.9791 179.129 72.5499C178.321 71.4163 177.836 70.1208 177.351 68.8252C176.866 67.5297 176.704 66.0722 176.704 64.6147C176.866 63.9669 176.866 63.1572 177.027 62.5094C177.189 61.8617 177.512 61.0519 177.674 60.4042C178.321 59.1086 179.129 57.8131 180.261 56.8414C181.393 55.8698 182.686 55.222 184.141 54.8981C185.758 54.5742 187.213 54.5742 188.506 54.5742Z" fill="#FF8A00"/>
<path d="M190.608 50.8494C189.638 50.6874 188.344 51.3352 188.021 51.983C187.859 52.6308 189.476 57.4891 190.608 57.9749C191.74 58.4607 193.033 56.5174 193.033 56.5174L190.608 50.8494Z" fill="#FFC727"/>
<path d="M211.949 45.344C215.991 58.4614 208.554 62.348 205.805 63.3197C203.219 64.1294 194.326 66.5585 188.991 53.927C183.656 41.2954 188.344 35.3035 194.165 33.1982C199.985 30.7691 207.907 32.2266 211.949 45.344Z" fill="white"/>
<path d="M211.949 45.3436C213.081 48.9063 213.728 52.9549 212.596 56.6796C211.949 58.461 210.979 60.2424 209.362 61.376C207.907 62.6715 205.967 63.4813 204.189 63.8051C202.249 64.291 200.309 64.291 198.368 63.8051C196.428 63.3193 194.65 62.3476 193.357 60.8902C190.608 58.1371 188.83 54.5744 187.536 50.8497C186.405 47.125 185.758 43.0764 187.051 39.3517C188.345 35.627 192.063 33.0359 195.782 32.2262C197.722 31.7404 199.662 31.7404 201.602 32.3881C203.542 32.874 205.159 34.0076 206.452 35.3031C207.907 36.5987 208.877 38.2181 209.847 39.9995C210.656 41.6189 211.302 43.5622 211.949 45.3436ZM211.949 45.3436C211.302 43.5622 210.656 41.7808 209.686 39.9995C208.877 38.38 207.746 36.7606 206.29 35.4651C204.835 34.1695 203.219 33.1979 201.44 32.712C199.662 32.2262 197.722 32.2262 195.782 32.712C192.063 33.5217 188.83 36.1128 187.698 39.6756C186.405 43.2383 187.051 47.125 188.345 50.6877C189.476 54.2505 191.255 57.8132 193.842 60.4043C195.135 61.6999 196.752 62.6715 198.53 63.1574C200.309 63.6432 202.249 63.6432 204.027 63.3193C205.967 62.9954 207.746 62.1857 209.201 61.0521C210.656 59.9185 211.787 58.2991 212.434 56.3557C213.566 52.9549 212.919 48.9063 211.949 45.3436Z" fill="#363B4D"/>
<path d="M209.362 43.562C209.039 43.562 208.715 43.562 208.392 43.562C208.069 43.562 207.745 43.562 207.422 43.4C207.26 43.2381 207.099 43.0762 207.26 42.7523C207.422 42.2664 207.907 42.2664 208.392 42.1045C208.877 42.1045 209.2 42.1045 209.685 42.4284C210.009 42.9142 209.847 43.562 209.362 43.562Z" fill="#363B4D"/>
<path d="M200.308 46.153C200.632 45.991 200.793 45.8291 201.117 45.6671C201.44 45.5052 201.763 45.3432 201.925 45.0193C202.087 44.8574 201.925 44.5335 201.763 44.3716C201.44 44.0477 200.955 44.2096 200.47 44.3716C199.985 44.5335 199.823 44.8574 199.5 45.3432C199.5 45.991 199.985 46.3149 200.308 46.153Z" fill="#363B4D"/>
<path d="M202.249 48.0963C200.793 48.4202 201.602 51.3352 202.895 51.0113C204.35 50.8494 203.542 47.9344 202.249 48.0963Z" fill="#363B4D"/>
<path d="M201.763 48.4209C201.602 48.5828 201.44 49.0687 201.117 49.0687C200.793 49.2306 200.47 48.9067 200.146 48.7448C200.308 49.2306 200.632 49.8784 201.278 49.7164C201.925 49.7164 202.087 49.0687 202.087 48.4209C201.925 48.4209 201.763 48.4209 201.763 48.4209Z" fill="#363B4D"/>
<path d="M208.878 46.153C210.333 45.6672 211.141 48.5822 209.848 49.068C208.554 49.3919 207.746 46.4769 208.878 46.153Z" fill="#363B4D"/>
<path d="M209.524 46.1536C209.847 46.3156 210.171 46.4775 210.332 46.3156C210.656 46.3156 210.817 45.8297 210.979 45.5059C211.141 45.9917 211.141 46.6395 210.656 46.9633C210.171 47.2872 209.686 46.8014 209.362 46.3156C209.362 46.3156 209.362 46.1536 209.524 46.1536Z" fill="#363B4D"/>
<path d="M204.512 55.5459C204.835 55.8698 204.997 56.5176 205.482 56.5176C205.967 56.6795 206.452 56.5176 206.937 56.3556C206.937 56.3556 206.937 56.3556 206.937 56.5176C206.452 57.0034 205.805 57.1653 205.158 57.0034C204.673 56.8414 204.512 56.1937 204.512 55.5459Z" fill="#363B4D"/>
<path d="M208.069 51.9832C208.069 51.9832 208.554 53.2788 208.877 53.9265C208.877 53.9265 208.716 54.0885 208.554 54.0885C207.422 54.5743 206.29 54.5743 205.32 53.7646V53.6026C206.29 53.9265 207.261 53.9265 208.231 53.6026C208.231 53.4407 207.261 51.4974 207.261 51.3354C207.584 51.1735 208.392 51.1735 208.716 51.3354C207.584 48.5824 206.129 46.1533 204.997 43.4002C204.997 43.2383 205.159 43.2383 205.159 43.2383C206.937 45.8294 208.231 48.9063 209.524 51.6593C209.847 52.1452 208.392 51.9832 208.069 51.9832Z" fill="#363B4D"/>
<path d="M210.979 42.4287C211.464 44.2101 211.949 46.1534 212.273 47.9348C212.596 49.8781 212.919 51.6595 212.758 53.6028C212.758 55.5461 212.111 57.3275 211.141 58.9469C210.171 60.5664 208.716 61.8619 206.938 62.6716C208.716 62.0239 210.333 60.7283 211.464 59.1089C211.949 58.2992 212.434 57.4894 212.758 56.5178C213.081 55.5461 213.243 54.5745 213.243 53.6028C213.404 51.6595 213.081 49.7162 212.596 47.7728C212.273 46.1534 211.626 44.2101 210.979 42.4287Z" fill="#363B4D"/>
<path d="M189.8 53.2789C192.387 53.2789 192.225 47.4489 192.225 47.4489C192.225 47.4489 202.734 44.21 202.41 35.4651C202.41 35.4651 204.997 40.8092 210.817 42.5906C210.817 42.5906 209.201 33.0359 201.44 32.2262C201.44 32.2262 191.578 29.959 187.213 38.2181C183.009 46.1533 188.021 53.2789 189.8 53.2789Z" fill="#FF8A00"/>
<path d="M202.41 34.6553C202.733 35.9508 202.733 37.4083 202.41 38.7039C202.087 39.9994 201.602 41.295 200.793 42.4286C200.632 42.7524 200.308 42.9144 200.147 43.2383L199.823 43.5622C199.662 43.7241 199.5 43.7241 199.5 43.8861C199.177 44.048 199.015 44.3719 198.691 44.5338C198.368 44.6958 198.206 44.8577 197.883 45.1816C197.721 45.3435 197.56 45.3435 197.398 45.5055L196.913 45.8294L195.943 46.3152C195.296 46.6391 194.65 46.801 194.003 46.963C194.65 46.6391 195.135 46.3152 195.781 45.9913L196.59 45.5055L197.075 45.1816C197.236 45.0197 197.398 45.0197 197.398 44.8577C197.721 44.6958 197.883 44.3719 198.206 44.2099C198.368 44.048 198.691 43.7241 198.853 43.5622L199.177 43.2383L199.5 42.9144C199.662 42.5905 199.985 42.4286 200.147 42.1047C200.955 40.9711 201.44 39.8375 201.763 38.5419C201.925 37.8941 202.087 37.2464 202.087 36.5986C202.41 35.9508 202.41 35.303 202.41 34.6553Z" fill="#FF8A00"/>
<path d="M191.902 52.3072C191.902 52.3072 188.345 49.2303 186.728 50.6878C185.112 52.1453 188.507 57.8133 190.932 58.1372C191.094 58.1372 191.417 58.1372 191.579 58.1372C191.74 58.1372 192.064 58.1372 192.225 57.9753C192.549 57.8133 192.71 57.6514 192.872 57.4894C193.034 57.3275 193.195 57.1656 193.357 57.0036C193.68 56.5178 193.68 56.1939 193.68 56.1939" fill="white"/>
<path d="M191.902 52.3074C191.255 51.8216 190.608 51.3358 189.962 51.0119C189.315 50.688 188.507 50.3641 187.698 50.3641C187.375 50.3641 187.052 50.526 186.728 50.8499C186.405 51.0119 186.405 51.4977 186.405 51.8216C186.405 52.6313 186.728 53.2791 187.052 53.9268C187.698 55.2224 188.668 56.6799 189.962 57.4896C190.608 57.9754 191.417 57.9754 192.225 57.8135C192.549 57.6515 192.872 57.4896 193.195 57.1657C193.519 56.8418 193.68 56.5179 193.68 56.1941C193.68 56.5179 193.519 57.0038 193.195 57.3277C193.034 57.6515 192.71 57.9754 192.225 58.1374C191.417 58.4613 190.608 58.2993 189.8 57.9754C188.345 57.1657 187.375 55.7082 186.567 54.4127C186.243 53.603 185.92 52.9552 185.92 51.9835C185.92 51.4977 185.92 51.0119 186.405 50.688C186.728 50.3641 187.213 50.2021 187.537 50.2021C189.315 50.2021 190.608 51.1738 191.902 52.3074Z" fill="#363B4D"/>
<path d="M187.698 52.1454C187.537 52.1454 187.537 52.3073 187.698 52.1454C189.477 52.4693 190.609 53.7648 191.417 55.2223C190.77 54.7365 190.124 54.5745 189.477 55.2223C189.477 55.2223 189.477 55.3842 189.477 55.2223C190.124 54.8984 190.609 54.8984 191.094 55.3843C191.417 55.7081 191.74 56.032 192.064 56.5179C192.225 56.6798 192.387 56.5179 192.387 56.3559C191.902 54.4126 189.8 51.9834 187.698 52.1454Z" fill="#363B4D"/>
<path d="M190.932 57.4895C191.093 57.8133 191.417 57.9753 191.74 57.8133C192.063 57.6514 192.225 57.3275 192.063 57.0036C191.902 56.6797 191.578 56.5178 191.255 56.6797C190.932 56.6797 190.77 57.1656 190.932 57.4895Z" fill="white"/>
<path d="M189.476 56.8418C189.638 57.0037 189.799 57.1657 190.123 57.0037C190.284 56.8418 190.446 56.6799 190.285 56.356C190.123 56.194 189.961 56.0321 189.638 56.194C189.476 56.356 189.314 56.5179 189.476 56.8418Z" fill="white"/>
<path d="M70.1615 156.923C70.9699 162.105 70.6465 167.449 69.3532 172.469C68.7065 174.898 67.8981 177.166 66.928 179.271C65.6346 182.186 64.3412 184.939 64.6646 188.016C64.9879 188.178 63.8562 188.178 63.8562 187.854C55.2875 183.158 44.4553 182.186 37.9883 174.575C34.9165 170.85 33.2997 166.315 32.6531 161.619C31.8447 156.599 31.683 150.931 32.9764 145.911C34.1081 141.7 36.6949 137.651 40.7368 135.546C44.9403 133.441 50.4372 133.603 54.8025 134.898C64.0179 137.975 68.7065 148.016 70.1615 156.923Z" fill="#5EE67B"/>
<path d="M98.778 185.262C92.6344 187.044 86.4908 188.663 80.3471 190.445C79.8621 190.607 69.515 171.173 73.2335 161.133C76.6286 151.902 84.5507 144.939 94.0895 141.862C98.4547 140.404 103.79 139.109 108.478 140.242C112.52 141.052 115.43 144.453 116.886 148.177C118.664 153.36 118.017 159.513 117.047 164.696C116.077 169.554 114.299 174.412 111.065 178.137C107.67 181.862 103.467 183.805 98.778 185.262Z" fill="#5EE67B"/>
<path d="M26.0241 193.846C27.8025 199.352 32.006 207.125 38.7964 207.125C43.1616 207.125 47.5268 206.639 51.892 206.639C56.5805 206.639 61.2691 206.639 65.9577 206.801C66.281 206.801 65.4726 193.036 54.1554 186.234C50.9219 184.291 47.2034 183.805 43.4849 182.995C39.4431 182.186 35.0778 181.538 30.8743 181.7C28.2875 181.862 26.1857 182.348 25.2157 184.939C24.4073 187.854 25.2157 191.093 26.0241 193.846Z" fill="#5EE67B"/>
<path d="M85.1974 204.858C85.0357 205.02 85.3591 205.182 85.5207 205.02L85.6824 205.182C90.2093 206.153 94.8979 207.125 99.4247 207.611C103.143 207.935 107.508 208.097 110.742 205.991C115.107 203.076 118.017 195.465 115.754 190.607C113.005 184.777 104.437 188.016 100.071 189.959C93.4428 193.036 88.1075 198.38 85.1974 204.858Z" fill="#5EE67B"/>
<path d="M74.5264 218.623C73.3947 214.899 72.263 211.012 70.9696 207.287C68.7061 199.838 66.281 192.55 63.5326 185.263C61.9158 180.891 60.2991 176.518 58.5206 172.308C58.844 169.555 59.0057 166.963 59.4907 164.21C60.1374 160.972 61.2691 157.895 62.2392 154.656C62.2392 154.494 61.9158 154.332 61.9158 154.494C59.9757 158.866 57.5506 164.372 57.3889 169.555C55.2872 164.696 53.0237 160 50.7603 155.304C50.5986 151.255 50.4369 147.368 51.0836 143.32C51.0836 143.158 50.7603 143.158 50.7603 143.32C50.1136 146.721 49.6285 150.283 49.9519 153.846C48.1735 150.283 46.2334 146.882 44.1316 143.32C43.9699 142.996 43.4849 143.32 43.6466 143.644C46.8801 149.635 49.7902 155.789 52.5387 162.105C48.6585 158.704 43.9699 156.275 39.2814 154.494C39.1197 154.494 38.958 154.656 39.1197 154.818C44.6166 157.085 49.1435 160.162 53.5087 164.21C55.4488 168.745 57.3889 173.441 59.1673 177.976C53.8321 172.793 46.5567 169.555 39.6047 167.773C39.4431 167.773 39.2814 168.097 39.6047 168.097C47.6885 170.526 53.9938 175.061 60.2991 180.405C60.9458 182.348 61.7541 184.129 62.4008 186.073C64.9876 193.198 67.5744 200.324 69.8379 207.611C70.9696 211.012 72.1013 214.575 73.233 217.976C74.3647 221.7 75.3348 225.587 76.9515 229.312C77.1132 229.635 77.7599 229.635 77.5982 229.15C76.7899 225.587 75.4965 222.024 74.5264 218.623Z" fill="#363B4D"/>
<path d="M107.507 166.802C103.627 168.745 99.7471 170.041 95.5436 171.498C92.9568 172.308 90.0467 173.118 87.6215 174.413C90.2083 168.745 92.9568 163.239 96.0286 157.733C99.9088 156.6 104.112 154.818 107.184 152.065C107.346 151.903 107.184 151.741 107.022 151.741C103.789 154.008 100.232 155.304 96.5136 156.923C97.322 155.466 98.1304 154.008 98.9388 152.551C99.1004 152.065 98.6154 151.741 98.2921 152.065C95.0586 156.6 92.1484 161.458 89.5616 166.316C88.9149 161.944 88.7533 157.733 88.9149 153.199C88.9149 153.037 88.7533 153.037 88.7533 153.199C87.9449 157.895 88.1066 162.915 88.9149 167.612C86.8132 171.822 84.8731 176.033 83.0947 180.405C82.448 177.814 81.4779 175.223 80.8312 172.632C80.0228 168.907 79.5378 165.021 80.0228 161.134C80.0228 160.972 79.8612 160.972 79.8612 161.134C78.7295 167.936 79.6995 175.709 82.448 182.349C81.4779 184.94 80.5079 187.531 79.5378 190.284C75.0109 203.725 72.1008 217.652 71.4541 231.903C71.4541 232.227 71.9391 232.227 71.9391 231.903C73.5559 217.976 76.466 204.049 80.9929 190.77C82.7713 185.587 84.8731 180.405 86.9749 175.547C90.5317 174.575 94.2502 173.118 97.807 171.822C101.202 170.689 104.759 169.231 107.669 167.126C107.831 166.964 107.669 166.802 107.507 166.802Z" fill="#363B4D"/>
<path d="M30.8741 186.883C33.6225 187.53 36.371 188.34 39.1195 189.15C38.3111 188.34 37.6644 187.692 36.856 187.044C35.7243 186.073 34.4309 185.263 33.1375 184.453C32.9758 184.453 33.1375 184.129 33.2992 184.291C35.7243 185.263 38.4728 187.206 39.9278 189.474C43.323 190.607 46.7182 191.741 49.9516 193.036C52.2151 194.008 54.4785 195.142 56.4186 196.437C55.7719 195.142 54.9636 193.684 54.1552 192.389C52.7001 190.445 50.5983 189.474 48.6582 188.016C48.4966 187.854 48.6582 187.692 48.8199 187.692C53.1851 189.636 55.9336 192.712 57.5503 197.085C59.8138 198.704 61.9156 200.648 64.0173 202.753C71.4543 211.012 77.4363 222.186 77.4363 233.36C77.4363 233.684 76.9513 233.684 76.9513 233.36C74.8495 222.186 70.3226 212.146 62.7239 203.401C62.2389 202.753 61.5922 202.267 61.1072 201.619C59.0054 201.457 57.0653 201.134 54.9636 201.134C52.5384 201.134 50.1133 201.457 47.8499 201.619C43.9697 201.943 39.6045 201.943 36.0476 200C35.886 199.838 36.0476 199.676 36.2093 199.676C44.1314 202.429 52.3768 198.866 60.2988 200.648C56.9036 197.409 53.0235 195.142 48.6582 193.198C48.4966 193.036 48.1732 193.036 47.8499 192.874C42.838 193.522 37.341 194.818 32.4908 193.198C32.3291 193.198 32.3291 192.874 32.4908 193.036C37.341 194.17 41.8679 192.712 46.5565 192.551C41.3829 190.607 36.2093 188.988 31.0357 187.044C30.389 187.044 30.389 186.721 30.8741 186.883Z" fill="#363B4D"/>
<path d="M81.8014 207.612C84.3882 205.182 87.1366 203.239 90.0468 201.458C91.9868 198.057 95.2203 195.304 98.4538 193.199C98.6155 193.037 98.7772 193.361 98.6155 193.523C95.867 195.628 93.6036 198.057 91.6635 200.81C94.897 199.029 98.4538 197.571 102.011 196.276C103.304 194.008 105.244 191.903 107.508 190.77C107.508 190.77 107.669 190.77 107.508 190.77C105.568 192.227 103.951 193.846 102.496 195.952C104.597 195.142 106.699 194.494 108.801 193.846C108.963 193.846 109.124 194.008 108.963 194.17C105.244 195.628 101.364 197.085 97.6455 198.867C102.334 199.514 106.538 199.676 111.388 198.867C111.549 198.867 111.549 199.029 111.388 199.029C106.699 200.324 101.526 200.486 96.8371 199.191C94.412 200.324 92.1485 201.62 89.8851 202.915C91.6635 202.753 93.6036 203.077 95.5437 203.401C98.7772 204.049 102.011 204.535 105.406 204.535C105.568 204.535 105.568 204.697 105.406 204.697C99.7472 205.668 94.2503 203.077 88.5917 203.725C86.4899 205.182 84.5498 206.64 82.7714 208.421C79.2146 211.822 76.3044 215.871 74.2027 220.243C71.7775 224.94 70.4841 229.96 68.5441 234.98C68.3824 235.142 68.2207 235.142 68.2207 234.818C69.6758 225.102 74.6877 214.413 81.8014 207.612Z" fill="#363B4D"/>
<path d="M58.3594 222.834L59.1677 231.255L61.5929 259.433H84.0656L87.2991 231.255L88.2692 222.834H58.3594Z" fill="#363B4D"/>
<path opacity="0.26" d="M58.3594 222.834L59.1677 231.255H87.2991L88.2692 222.834H58.3594Z" fill="#DFF7FE"/>
<path d="M56.1918 227.451H90.4668V220.65H56.1918V227.451Z" fill="#363B4D"/>
</g>
<defs>
<clipPath id="clip0_5234_166511">
<rect width="448" height="280" fill="white" transform="translate(16)"/>
</clipPath>
</defs>
</svg>
