<svg width="16" height="16" viewBox="0 0 16 16" fill="none" xmlns="http://www.w3.org/2000/svg">
<g opacity="0.9" clip-path="url(#clip0_5234_164573)">
<path d="M12.6667 2.00033H12V0.666992H10.6667V2.00033H5.33333V0.666992H4V2.00033H3.33333C2.59333 2.00033 2 2.60033 2 3.33366V12.667C2 13.4003 2.59333 14.0003 3.33333 14.0003H12.6667C13.4 14.0003 14 13.4003 14 12.667V3.33366C14 2.60033 13.4 2.00033 12.6667 2.00033ZM12.6667 12.667H3.33333V6.00033H12.6667V12.667ZM12.6667 4.66699H3.33333V3.33366H12.6667V4.66699ZM4.66667 7.33366H8V10.667H4.66667V7.33366Z" fill="#363B4D" fill-opacity="0.6"/>
</g>
<defs>
<clipPath id="clip0_5234_164573">
<rect width="16" height="16" fill="white"/>
</clipPath>
</defs>
</svg>
