<svg width="24" height="24" viewBox="0 0 24 24" fill="none" xmlns="http://www.w3.org/2000/svg">
<path d="M18.364 14.636C17.3837 13.6558 16.217 12.9301 14.9439 12.4909C16.3074 11.5518 17.2031 9.9802 17.2031 8.20312C17.2031 5.33413 14.869 3 12 3C9.131 3 6.79688 5.33413 6.79688 8.20312C6.79688 9.9802 7.69262 11.5518 9.05609 12.4909C7.78308 12.9301 6.61631 13.6558 5.63605 14.636C3.93618 16.3359 3 18.596 3 21H4.40625C4.40625 16.8128 7.81279 13.4062 12 13.4062C16.1872 13.4062 19.5938 16.8128 19.5938 21H21C21 18.596 20.0638 16.3359 18.364 14.636ZM12 12C9.90641 12 8.20312 10.2968 8.20312 8.20312C8.20312 6.1095 9.90641 4.40625 12 4.40625C14.0936 4.40625 15.7969 6.1095 15.7969 8.20312C15.7969 10.2968 14.0936 12 12 12Z" fill="#363B4D" fill-opacity="0.9"/>
<path d="M2.875 21V21.125H3H4.40625H4.53125V21C4.53125 16.8818 7.88182 13.5312 12 13.5312C16.1182 13.5312 19.4688 16.8818 19.4688 21V21.125H19.5938H21H21.125V21C21.125 18.5629 20.1757 16.271 18.4524 14.5476L18.364 14.636L18.4524 14.5476C17.5166 13.6119 16.4129 12.9048 15.2091 12.4535C16.4951 11.4802 17.3281 9.93735 17.3281 8.20312C17.3281 5.26509 14.938 2.875 12 2.875C9.06197 2.875 6.67188 5.26509 6.67188 8.20312C6.67188 9.93735 7.5049 11.4802 8.79088 12.4535C7.58717 12.9048 6.48342 13.6119 5.54766 14.5476L5.63605 14.636L5.54766 14.5476C3.82435 16.271 2.875 18.5629 2.875 21ZM12 11.875C9.97545 11.875 8.32812 10.2277 8.32812 8.20312C8.32812 6.17854 9.97545 4.53125 12 4.53125C14.0246 4.53125 15.6719 6.17854 15.6719 8.20312C15.6719 10.2277 14.0246 11.875 12 11.875Z" stroke="#363B4D" stroke-opacity="0.9" stroke-width="0.25"/>
</svg>
