<svg width="343" height="32" viewBox="0 0 343 32" fill="none" xmlns="http://www.w3.org/2000/svg">
<path d="M12.7266 28.4444L6.16309 21.8884L6.16309 15.3574L12.7266 21.8954L25.8372 8.83203L25.8372 15.3701L12.7266 28.4444Z" fill="#363B4D" fill-opacity="0.9"/>
<path d="M12.7075 15.4611L12.7075 8.92115L19.2743 2.37036L19.2743 8.92115L12.7075 15.4611Z" fill="#363B4D" fill-opacity="0.9"/>
<path d="M41.4382 23V9.90909H43.4134V16.1605H43.5732L49.0639 9.90909H51.5504L46.2706 15.8026L51.5696 23H49.1918L44.9602 17.1513L43.4134 18.9283V23H41.4382ZM53.3913 23V9.90909H58.0575C59.0717 9.90909 59.9134 10.0838 60.5824 10.4332C61.2557 10.7827 61.7585 11.2663 62.0909 11.8842C62.4233 12.4979 62.5895 13.2074 62.5895 14.0128C62.5895 14.8139 62.4212 15.5192 62.0845 16.1286C61.7521 16.7337 61.2493 17.2045 60.576 17.5412C59.907 17.8778 59.0653 18.0462 58.0511 18.0462H54.5163V16.3459H57.8722C58.5114 16.3459 59.0313 16.2543 59.4318 16.071C59.8366 15.8878 60.1328 15.6214 60.3203 15.272C60.5078 14.9226 60.6016 14.5028 60.6016 14.0128C60.6016 13.5185 60.5057 13.0902 60.3139 12.728C60.1264 12.3658 59.8303 12.0888 59.4254 11.897C59.0249 11.701 58.4986 11.603 57.8466 11.603H55.3665V23H53.3913ZM59.8537 17.0938L63.0881 23H60.8381L57.6676 17.0938H59.8537ZM66.968 9.90909V23H64.9929V9.90909H66.968ZM69.8445 23V9.90909H74.5107C75.5291 9.90909 76.3729 10.0945 77.0419 10.4652C77.7109 10.8359 78.2116 11.343 78.544 11.9865C78.8764 12.6257 79.0426 13.3459 79.0426 14.147C79.0426 14.9524 78.8743 15.6768 78.5376 16.3203C78.2053 16.9595 77.7024 17.4666 77.0291 17.8416C76.3601 18.2124 75.5185 18.3977 74.5043 18.3977H71.2955V16.723H74.3253C74.9688 16.723 75.4908 16.6122 75.8913 16.3906C76.2919 16.1648 76.5859 15.858 76.7734 15.4702C76.9609 15.0824 77.0547 14.6413 77.0547 14.147C77.0547 13.6527 76.9609 13.2138 76.7734 12.8303C76.5859 12.4467 76.2898 12.1463 75.8849 11.929C75.4844 11.7116 74.956 11.603 74.2997 11.603H71.8196V23H69.8445ZM80.7125 11.6094V9.90909H90.8439V11.6094H86.7594V23H84.7907V11.6094H80.7125ZM103.892 16.4545C103.892 17.8523 103.636 19.054 103.125 20.0597C102.613 21.0611 101.912 21.8324 101.022 22.3736C100.135 22.9105 99.1275 23.179 97.9982 23.179C96.8647 23.179 95.8526 22.9105 94.962 22.3736C94.0756 21.8324 93.3768 21.0589 92.8654 20.0533C92.354 19.0476 92.0984 17.848 92.0984 16.4545C92.0984 15.0568 92.354 13.8572 92.8654 12.8558C93.3768 11.8501 94.0756 11.0788 94.962 10.5419C95.8526 10.0007 96.8647 9.73011 97.9982 9.73011C99.1275 9.73011 100.135 10.0007 101.022 10.5419C101.912 11.0788 102.613 11.8501 103.125 12.8558C103.636 13.8572 103.892 15.0568 103.892 16.4545ZM101.936 16.4545C101.936 15.3892 101.763 14.4922 101.418 13.7635C101.077 13.0305 100.608 12.4766 100.012 12.1016C99.4194 11.7223 98.7482 11.5327 97.9982 11.5327C97.244 11.5327 96.5707 11.7223 95.9783 12.1016C95.386 12.4766 94.9173 13.0305 94.5721 13.7635C94.2312 14.4922 94.0607 15.3892 94.0607 16.4545C94.0607 17.5199 94.2312 18.419 94.5721 19.152C94.9173 19.8807 95.386 20.4347 95.9783 20.8139C96.5707 21.1889 97.244 21.3764 97.9982 21.3764C98.7482 21.3764 99.4194 21.1889 100.012 20.8139C100.608 20.4347 101.077 19.8807 101.418 19.152C101.763 18.419 101.936 17.5199 101.936 16.4545ZM106.848 9.90909L110.491 20.571H110.638L114.282 9.90909H116.417L111.706 23H109.424L104.713 9.90909H106.848ZM118.307 23V9.90909H126.515V11.6094H120.282V15.598H126.086V17.2919H120.282V21.2997H126.591V23H118.307ZM140.026 14.1662H138.032C137.955 13.7401 137.812 13.3651 137.603 13.0412C137.395 12.7173 137.139 12.4425 136.836 12.2166C136.534 11.9908 136.195 11.8203 135.82 11.7053C135.449 11.5902 135.055 11.5327 134.637 11.5327C133.883 11.5327 133.208 11.7223 132.611 12.1016C132.019 12.4808 131.55 13.0369 131.205 13.7699C130.864 14.5028 130.694 15.3977 130.694 16.4545C130.694 17.5199 130.864 18.419 131.205 19.152C131.55 19.8849 132.021 20.4389 132.618 20.8139C133.214 21.1889 133.885 21.3764 134.631 21.3764C135.044 21.3764 135.436 21.321 135.807 21.2102C136.182 21.0952 136.521 20.9268 136.824 20.7053C137.126 20.4837 137.382 20.2131 137.591 19.8935C137.804 19.5696 137.951 19.1989 138.032 18.7812L140.026 18.7876C139.919 19.4311 139.713 20.0234 139.406 20.5646C139.103 21.1016 138.713 21.5661 138.236 21.9581C137.763 22.3459 137.222 22.6463 136.613 22.8594C136.003 23.0724 135.338 23.179 134.618 23.179C133.485 23.179 132.475 22.9105 131.588 22.3736C130.702 21.8324 130.003 21.0589 129.492 20.0533C128.985 19.0476 128.731 17.848 128.731 16.4545C128.731 15.0568 128.987 13.8572 129.498 12.8558C130.01 11.8501 130.708 11.0788 131.595 10.5419C132.481 10.0007 133.489 9.73011 134.618 9.73011C135.313 9.73011 135.961 9.83026 136.561 10.0305C137.167 10.2266 137.71 10.5163 138.191 10.8999C138.673 11.2791 139.071 11.7436 139.387 12.2933C139.702 12.8388 139.915 13.4631 140.026 14.1662ZM142.389 23V9.90909H144.365V15.598H150.891V9.90909H152.872V23H150.891V17.2919H144.365V23H142.389ZM155.749 23V9.90909H163.956V11.6094H157.724V15.598H163.528V17.2919H157.724V21.2997H164.033V23H155.749Z" fill="#363B4D" fill-opacity="0.9"/>
</svg>
