<svg width="685" height="754" viewBox="0 0 685 754" fill="none" xmlns="http://www.w3.org/2000/svg">
<path opacity="0.4" d="M341.796 432.854L227.4 324.184V215.929L341.796 324.301L570.299 107.768V216.14L341.796 432.854Z" fill="#4569FF"/>
<path opacity="0.5" d="M341.796 432.856L227.4 324.187V215.931L341.796 324.304V432.856Z" fill="#4569FF"/>
<path opacity="0.25" d="M343.84 216.446V108.312L458.595 0V108.312L343.84 216.446Z" fill="#4569FF"/>
<path opacity="0.6" d="M114.05 753.037L0 645.563V538.499L114.05 645.679L341.862 431.527V538.707L114.05 753.037Z" fill="#4569FF"/>
<g opacity="0.25">
<path d="M112.9 540.367V432.233L227.655 323.921V432.233L112.9 540.367Z" fill="#4569FF"/>
</g>
<g opacity="0.9">
<path d="M456.196 752.834L341.8 645.361V538.297L456.196 645.477L684.699 431.325V538.505L456.196 752.834Z" fill="#4569FF"/>
<path d="M457.583 538.164V430.031L572.687 321.719V430.031L457.583 538.164Z" fill="#4569FF"/>
</g>
</svg>
