<svg width="24" height="24" viewBox="0 0 24 24" fill="none" xmlns="http://www.w3.org/2000/svg">
<g clip-path="url(#clip0_7715_219720)">
<path d="M10.2309 15.8304C10.6209 16.2204 11.2509 16.2204 11.6409 15.8304L15.8809 11.5904C16.2709 11.2004 16.2709 10.5704 15.8809 10.1704C15.4909 9.78043 14.8609 9.78043 14.4709 10.1704L10.9309 13.7004L9.52095 12.2904C9.13095 11.9004 8.50095 11.9004 8.10095 12.2904C7.70095 12.6804 7.71095 13.3104 8.10095 13.7004L10.2309 15.8304Z" fill="#363B4D" fill-opacity="0.9"/>
<path d="M19 4H5C3.89 4 3 4.9 3 6V18C3 19.1 3.89 20 5 20H19C20.1 20 21 19.1 21 18V6C21 4.9 20.11 4 19 4ZM19 17C19 17.55 18.55 18 18 18H6C5.45 18 5 17.55 5 17V8H19V17Z" fill="#363B4D" fill-opacity="0.9"/>
</g>
<defs>
<clipPath id="clip0_7715_219720">
<rect width="24" height="24" fill="white"/>
</clipPath>
</defs>
</svg>
